<?xml version="1.0" standalone="no"?>
<!DOCTYPE svg PUBLIC "-//W3C//DTD SVG 20010904//EN"
 "http://www.w3.org/TR/2001/REC-SVG-20010904/DTD/svg10.dtd">
<svg version="1.0" xmlns="http://www.w3.org/2000/svg"
 width="2523.000000pt" height="2523.000000pt" viewBox="0 0 2523.000000 2523.000000"
 preserveAspectRatio="xMidYMid meet">
<metadata>
Created by potrace 1.14, written by Peter Selinger 2001-2017
</metadata>
<g transform="translate(0.000000,2523.000000) scale(0.100000,-0.100000)"
fill="#000000" stroke="none">
<path d="M8522 21603 c-12 -15 -22 -33 -22 -39 0 -7 -7 -14 -15 -18 -8 -3 -15
-12 -15 -21 0 -8 -4 -15 -10 -15 -5 0 -12 -11 -16 -25 -3 -14 -10 -25 -15 -25
-5 0 -9 -7 -9 -15 0 -8 -7 -15 -15 -15 -9 0 -15 -9 -15 -24 0 -13 -7 -26 -15
-30 -8 -3 -15 -17 -15 -31 0 -16 -6 -25 -15 -25 -8 0 -15 -7 -15 -15 0 -8 -4
-15 -10 -15 -5 0 -10 -6 -10 -14 0 -8 -6 -21 -13 -28 -7 -7 -22 -32 -33 -55
-10 -23 -25 -43 -31 -43 -7 0 -13 -11 -13 -24 0 -13 -7 -26 -15 -30 -8 -3 -15
-12 -15 -21 0 -8 -4 -15 -10 -15 -5 0 -12 -11 -16 -25 -3 -14 -10 -25 -14 -25
-4 0 -11 -11 -14 -25 -4 -14 -11 -25 -16 -25 -6 0 -10 -13 -10 -30 0 -20 -5
-30 -15 -30 -9 0 -15 -9 -15 -24 0 -13 -7 -26 -15 -30 -8 -3 -15 -16 -15 -30
0 -13 -7 -26 -15 -30 -8 -3 -15 -17 -15 -31 0 -14 -4 -25 -9 -25 -5 0 -12 -11
-15 -25 -4 -14 -11 -25 -16 -25 -6 0 -10 -9 -10 -20 0 -11 -4 -20 -9 -20 -5 0
-14 -12 -19 -27 -22 -58 -132 -319 -143 -337 -25 -42 -115 -298 -178 -501 -63
-206 -73 -243 -102 -375 -59 -264 -54 -249 -68 -217 -6 17 -11 88 -11 176 0
210 41 424 122 636 45 116 167 366 231 470 44 72 52 91 39 94 -8 2 -21 -4 -27
-13 -7 -9 -17 -16 -24 -16 -6 0 -11 -4 -11 -9 0 -5 -10 -13 -22 -16 -11 -4
-31 -18 -43 -31 -12 -13 -27 -24 -34 -24 -6 0 -11 -7 -11 -15 0 -8 -7 -15 -15
-15 -8 0 -15 -7 -15 -15 0 -8 -7 -15 -15 -15 -8 0 -15 -7 -15 -15 0 -8 -7 -15
-15 -15 -8 0 -15 -4 -15 -9 0 -5 -10 -13 -22 -16 -11 -4 -31 -18 -43 -31 -12
-13 -27 -24 -34 -24 -6 0 -11 -7 -11 -15 0 -8 -7 -15 -15 -15 -8 0 -15 -7 -15
-15 0 -8 -5 -15 -11 -15 -6 0 -24 -13 -41 -30 -16 -16 -34 -30 -40 -30 -6 0
-21 -11 -34 -25 -13 -14 -28 -25 -34 -25 -5 0 -10 -7 -10 -15 0 -8 -7 -15 -15
-15 -8 0 -15 -5 -15 -11 0 -14 -25 -39 -39 -39 -6 0 -11 -7 -11 -15 0 -8 -7
-15 -15 -15 -8 0 -15 -7 -15 -15 0 -8 -7 -15 -15 -15 -8 0 -15 -7 -15 -15 0
-8 -5 -15 -11 -15 -14 0 -69 -55 -69 -69 0 -6 -7 -11 -15 -11 -8 0 -15 -7 -15
-15 0 -8 -7 -15 -15 -15 -8 0 -15 -7 -15 -15 0 -8 -7 -15 -15 -15 -8 0 -15 -7
-15 -15 0 -8 -5 -15 -11 -15 -14 0 -39 -25 -39 -39 0 -6 -7 -11 -15 -11 -8 0
-15 -7 -15 -15 0 -8 -7 -15 -15 -15 -8 0 -15 -7 -15 -15 0 -8 -7 -15 -15 -15
-8 0 -15 -7 -15 -15 0 -8 -7 -15 -15 -15 -8 0 -15 -5 -15 -10 0 -6 -9 -21 -21
-33 -12 -12 -39 -47 -60 -77 -22 -30 -60 -82 -87 -116 -26 -34 -69 -97 -97
-142 -27 -44 -52 -78 -54 -76 -7 6 141 249 182 298 31 37 36 47 21 44 -10 -2
-18 -10 -16 -16 1 -7 -7 -12 -19 -12 -12 0 -17 -4 -14 -11 4 -6 -2 -13 -14
-16 -12 -3 -21 -9 -21 -13 0 -5 -9 -12 -20 -15 -11 -3 -23 -17 -26 -31 -3 -13
-12 -24 -20 -24 -8 0 -14 -7 -14 -15 0 -8 -7 -15 -15 -15 -8 0 -15 -5 -15 -11
0 -7 -11 -22 -25 -35 -14 -13 -25 -28 -25 -34 0 -5 -7 -10 -15 -10 -8 0 -15
-7 -15 -15 0 -8 -4 -15 -10 -15 -5 0 -12 -11 -16 -25 -3 -14 -12 -25 -20 -25
-8 0 -14 -5 -14 -11 0 -7 -11 -22 -25 -35 -14 -13 -25 -28 -25 -34 0 -5 -7
-10 -15 -10 -9 0 -15 -9 -15 -25 0 -16 -6 -25 -15 -25 -8 0 -15 -7 -15 -15 0
-8 -7 -15 -15 -15 -8 0 -15 -5 -15 -11 0 -7 -11 -22 -25 -35 -14 -13 -25 -27
-25 -32 0 -6 -7 -12 -15 -16 -8 -3 -15 -15 -15 -26 0 -11 -7 -20 -15 -20 -8 0
-15 -7 -15 -15 0 -8 -7 -15 -15 -15 -8 0 -15 -7 -15 -15 0 -8 -4 -15 -10 -15
-5 0 -12 -11 -16 -25 -3 -14 -10 -25 -15 -25 -5 0 -9 -7 -9 -15 0 -8 -7 -15
-15 -15 -8 0 -15 -6 -15 -14 0 -8 -7 -16 -15 -20 -8 -3 -15 -14 -15 -25 0 -10
-6 -21 -13 -24 -7 -2 -21 -22 -32 -43 -11 -21 -30 -50 -42 -64 -13 -13 -23
-28 -23 -33 0 -4 -9 -20 -19 -35 -172 -244 -265 -430 -310 -622 -11 -47 -27
-115 -36 -151 -9 -40 -15 -112 -15 -187 0 -67 -4 -122 -9 -122 -15 0 -20 154
-7 252 12 91 11 96 -6 93 -15 -3 -17 1 -12 23 4 22 3 24 -6 12 -9 -12 -10 -10
-4 10 4 14 7 35 6 48 -1 13 12 71 29 130 35 121 47 177 27 127 -6 -16 -17 -36
-25 -43 -7 -7 -13 -20 -13 -28 0 -8 -4 -14 -10 -14 -5 0 -10 -10 -10 -22 0
-13 -7 -36 -15 -52 -8 -15 -15 -42 -15 -60 0 -17 -7 -40 -15 -50 -10 -13 -15
-43 -15 -87 0 -45 -4 -69 -12 -71 -9 -3 -14 -40 -16 -124 -3 -74 -8 -122 -15
-126 -7 -4 -13 -65 -15 -172 -3 -91 -8 -166 -13 -166 -5 0 -9 -58 -9 -130 0
-71 4 -130 9 -130 5 0 10 -59 13 -132 3 -91 8 -133 16 -136 8 -2 12 -28 12
-73 0 -53 4 -71 15 -75 11 -5 15 -21 15 -59 0 -31 5 -55 11 -57 6 -2 14 -27
17 -56 2 -29 8 -52 12 -52 4 0 10 -19 13 -41 3 -23 10 -45 15 -48 5 -3 12 -23
16 -43 4 -21 11 -38 16 -38 6 0 10 -13 10 -30 0 -20 5 -30 15 -30 9 0 15 -10
15 -26 0 -14 7 -32 15 -40 8 -9 15 -26 15 -40 0 -14 7 -27 15 -30 8 -4 15 -17
15 -30 0 -13 3 -24 8 -24 4 0 16 -20 27 -45 11 -25 25 -45 32 -45 7 0 13 -11
13 -25 0 -14 7 -28 15 -31 8 -4 15 -12 15 -20 0 -8 4 -14 10 -14 5 0 12 -11
16 -25 3 -14 10 -25 15 -25 5 0 9 -7 9 -15 0 -8 7 -15 15 -15 8 0 15 -7 15
-15 0 -8 6 -15 14 -15 8 0 17 -11 20 -25 4 -14 11 -25 16 -25 6 0 10 -7 10
-15 0 -8 7 -15 15 -15 8 0 15 -7 15 -15 0 -8 7 -15 15 -15 8 0 15 -4 15 -10 0
-5 11 -12 25 -16 14 -3 25 -12 25 -20 0 -8 7 -14 15 -14 8 0 15 -4 15 -10 0
-5 7 -10 15 -10 8 0 15 -7 15 -15 0 -8 7 -15 15 -15 8 0 15 -7 15 -15 0 -10
10 -15 30 -15 20 0 30 -5 30 -15 0 -9 9 -15 25 -15 14 0 25 -4 25 -10 0 -5 12
-13 27 -16 15 -4 34 -13 41 -21 7 -7 20 -13 28 -13 8 0 14 -4 14 -9 0 -5 18
-12 40 -16 22 -4 40 -11 40 -16 0 -5 14 -9 30 -9 18 0 33 -6 36 -15 5 -11 22
-15 69 -15 47 0 64 -4 69 -15 4 -13 35 -15 186 -15 113 0 180 -4 180 -10 0 -5
7 -10 15 -10 8 0 15 5 15 10 0 6 105 10 295 10 l295 0 0 -55 c0 -42 -3 -55
-15 -55 -12 0 -15 -15 -15 -72 0 -44 -4 -68 -9 -60 -10 16 -21 -40 -21 -105 0
-24 -4 -43 -9 -43 -5 0 -12 -27 -16 -60 -4 -33 -11 -60 -15 -60 -4 0 -10 -35
-12 -77 -2 -48 -8 -78 -16 -81 -7 -2 -12 -24 -12 -59 0 -35 -5 -60 -15 -69
-10 -11 -15 -36 -15 -84 0 -45 -4 -70 -12 -72 -8 -3 -14 -33 -16 -86 -2 -45
-8 -82 -12 -82 -5 0 -12 -31 -16 -70 -3 -38 -11 -70 -15 -70 -5 0 -9 -10 -9
-22 0 -36 -11 -68 -21 -62 -5 3 -9 -4 -9 -15 0 -12 -4 -21 -10 -21 -5 0 -12
-11 -16 -24 -3 -15 -15 -27 -30 -30 -13 -4 -24 -11 -24 -16 0 -6 -9 -10 -20
-10 -11 0 -20 -7 -20 -15 0 -8 -5 -15 -11 -15 -13 0 -39 -25 -39 -38 0 -5 -11
-13 -25 -16 -15 -4 -27 -16 -31 -31 -3 -14 -10 -25 -15 -25 -5 0 -12 -18 -15
-40 -4 -22 -10 -40 -15 -40 -5 0 -9 -20 -9 -45 0 -25 4 -45 9 -45 5 0 11 -23
13 -52 3 -29 11 -54 17 -56 6 -2 11 -24 11 -48 0 -32 4 -44 15 -44 11 0 15
-11 15 -40 l0 -40 -59 0 c-40 0 -65 -5 -75 -15 -11 -12 -42 -15 -139 -15 -83
0 -127 -4 -129 -11 -2 -7 -42 -13 -96 -17 -51 -2 -92 -8 -92 -12 0 -4 -35 -10
-77 -14 -43 -4 -82 -11 -88 -15 -5 -5 -32 -11 -60 -14 -27 -3 -51 -10 -53 -16
-2 -6 -29 -11 -62 -11 -39 0 -64 -5 -74 -15 -9 -9 -34 -15 -66 -15 -36 0 -52
-4 -56 -15 -5 -11 -21 -15 -59 -15 -29 0 -55 -5 -57 -10 -2 -6 -27 -13 -56
-17 -28 -3 -52 -9 -52 -13 0 -4 -19 -10 -42 -13 -24 -3 -44 -11 -46 -16 -2 -6
-19 -11 -38 -11 -22 0 -37 -6 -40 -15 -4 -9 -19 -15 -35 -15 -19 0 -29 -5 -29
-15 0 -9 -9 -15 -25 -15 -15 0 -25 -6 -25 -14 0 -8 -7 -16 -15 -20 -8 -3 -15
-15 -15 -26 0 -12 -7 -29 -16 -37 -13 -13 -15 -39 -12 -156 2 -101 7 -142 16
-145 8 -2 12 -31 12 -98 0 -55 4 -94 10 -94 5 0 13 -18 16 -40 5 -29 19 -54
50 -87 24 -25 44 -52 44 -60 0 -7 5 -13 10 -13 6 0 10 -7 10 -15 0 -8 7 -15
15 -15 9 0 15 -9 15 -25 0 -14 4 -25 9 -25 5 0 12 -14 16 -30 4 -16 10 -30 15
-30 4 0 10 -18 14 -40 3 -22 11 -40 16 -40 6 0 10 -13 10 -30 0 -20 5 -30 15
-30 11 0 15 -12 15 -44 0 -26 6 -51 15 -60 8 -8 15 -32 15 -54 0 -22 5 -42 11
-44 6 -2 14 -27 17 -56 2 -29 8 -52 13 -52 5 0 12 -18 15 -40 4 -22 10 -40 15
-40 5 0 9 -18 9 -40 0 -27 5 -43 15 -46 10 -4 15 -20 15 -49 0 -25 6 -50 15
-59 8 -8 15 -31 15 -51 0 -20 7 -43 15 -51 8 -9 15 -28 15 -44 0 -16 5 -30 11
-32 5 -2 13 -22 16 -46 3 -23 9 -42 13 -42 4 0 10 -18 14 -40 3 -22 11 -40 16
-40 6 0 10 -11 10 -25 0 -14 7 -28 15 -31 8 -4 15 -16 15 -29 0 -13 7 -25 15
-29 8 -3 15 -17 15 -31 0 -14 4 -25 10 -25 5 0 12 -11 16 -25 3 -14 10 -25 15
-25 5 0 9 -6 9 -13 0 -7 9 -20 20 -30 11 -9 20 -24 20 -32 0 -8 5 -15 10 -15
6 0 10 -7 10 -15 0 -8 7 -15 15 -15 8 0 15 -7 15 -15 0 -8 4 -15 10 -15 5 0
27 -18 47 -40 21 -22 44 -40 51 -40 6 0 12 -4 12 -10 0 -5 11 -12 25 -16 14
-3 25 -12 25 -20 0 -8 10 -14 24 -14 13 0 26 -5 28 -11 2 -5 22 -13 46 -16 23
-3 42 -10 42 -14 0 -5 13 -9 29 -9 16 0 36 -7 45 -15 10 -11 37 -15 96 -15 59
0 86 -4 96 -15 21 -20 212 -20 269 0 25 9 79 15 143 15 78 0 107 4 118 15 9 9
34 15 60 15 24 0 44 4 44 9 0 5 20 12 45 15 25 4 45 11 45 17 0 5 9 9 20 9 21
0 103 39 108 52 2 4 14 8 27 8 13 0 28 6 32 14 4 7 13 15 20 17 7 2 -18 48
-63 114 -41 61 -86 132 -100 158 -24 47 -44 54 -44 17 0 -24 -95 -102 -169
-140 -137 -68 -329 -93 -571 -71 -212 18 -318 59 -412 157 -97 103 -236 468
-332 874 -62 262 -89 461 -90 670 -1 165 2 193 21 255 13 39 34 87 48 107 54
79 176 135 402 184 207 44 474 80 642 86 l74 3 37 -105 c46 -133 91 -220 174
-340 106 -153 108 -158 117 -300 4 -69 13 -174 19 -235 5 -60 17 -204 25 -320
9 -115 20 -244 25 -285 5 -41 12 -123 16 -182 4 -60 10 -108 14 -108 4 0 16
19 26 42 10 24 47 84 81 135 34 51 74 116 89 145 15 29 34 64 44 78 29 41 284
548 320 635 41 102 95 215 113 237 31 39 114 46 189 17 55 -22 104 -120 214
-429 40 -113 91 -252 114 -310 23 -58 54 -139 70 -180 66 -175 128 -310 184
-405 39 -67 80 -111 293 -315 80 -76 103 -118 103 -184 0 -31 -35 -90 -76
-127 -31 -29 -120 -80 -126 -73 -2 2 -5 -16 -7 -39 l-2 -43 80 -13 c71 -12 85
-11 133 4 126 41 231 118 267 198 l21 46 96 -75 c106 -82 141 -103 230 -133
146 -49 424 -65 619 -36 117 18 154 29 212 64 76 46 98 115 133 415 6 49 13
93 16 98 12 18 87 448 105 593 10 81 17 108 39 140 52 75 95 107 220 166 111
52 363 179 400 202 79 47 177 128 211 174 31 41 57 86 123 208 6 11 43 63 82
115 90 121 87 116 74 141 -17 31 -173 101 -355 160 -219 70 -207 64 -165 82
36 15 101 24 400 52 91 9 190 20 220 25 95 16 766 60 926 60 64 0 83 -3 88
-15 5 -13 2 -14 -15 -4 -32 17 -35 3 -10 -44 65 -118 92 -180 111 -253 12 -45
29 -86 40 -95 19 -17 19 -17 -3 -23 l-22 -6 23 -19 c12 -11 22 -24 22 -29 0
-5 7 -15 15 -22 8 -7 15 -21 15 -32 0 -10 -7 -21 -15 -24 -8 -4 -15 -15 -15
-25 0 -15 7 -19 39 -19 22 0 43 -5 46 -11 11 -16 -5 -25 -16 -9 -8 13 -10 13
-19 0 -10 -16 -9 -38 4 -58 4 -8 1 -23 -8 -37 -22 -33 -20 -45 6 -45 17 0 19
-3 10 -12 -9 -9 -7 -14 6 -25 16 -12 16 -14 0 -27 -31 -23 -14 -72 20 -59 12
5 14 1 10 -15 -3 -11 -3 -22 1 -24 12 -5 22 -68 11 -68 -11 0 -23 37 -16 49 3
5 -1 15 -10 22 -14 11 -18 10 -30 -5 -11 -16 -11 -23 1 -47 8 -15 19 -31 25
-34 13 -8 13 -92 0 -100 -6 -3 -10 -17 -10 -30 0 -13 -4 -26 -9 -29 -4 -3 2
-27 15 -53 32 -68 40 -113 20 -113 -9 0 -16 -6 -16 -12 0 -7 -5 -5 -11 5 -5 9
-7 22 -4 27 3 6 -1 10 -9 10 -20 0 -40 -38 -28 -53 13 -17 9 -108 -7 -136 -23
-42 -15 -130 9 -92 10 17 44 6 37 -12 -2 -6 -13 -12 -24 -11 -14 0 -19 -5 -16
-17 3 -9 0 -26 -6 -37 -6 -12 -13 -40 -16 -64 -3 -24 -10 -44 -15 -46 -5 -2
-12 -19 -16 -38 -3 -19 -10 -34 -16 -34 -5 0 -7 -4 -4 -9 3 -5 -2 -12 -12 -16
-15 -5 -12 -11 18 -37 l35 -30 -38 22 c-29 17 -41 20 -50 11 -8 -8 -7 -11 6
-11 10 0 22 -12 27 -26 14 -36 12 -47 -6 -40 -12 4 -14 1 -9 -14 4 -13 2 -20
-6 -20 -7 0 1 -15 19 -33 39 -40 43 -61 5 -25 -58 53 -104 46 -52 -8 18 -19
28 -34 22 -34 -7 0 -15 5 -18 10 -3 6 -13 10 -22 10 -14 0 -14 -2 -2 -17 8
-10 20 -28 27 -41 13 -23 13 -23 -17 -7 -31 15 -49 6 -34 -17 4 -7 8 -15 8
-18 1 -3 14 -30 29 -60 30 -59 28 -58 -36 3 -16 15 -48 24 -48 13 0 -2 11 -29
25 -60 14 -31 25 -59 25 -63 0 -12 -33 22 -41 44 -9 25 -29 31 -29 10 0 -7 5
-18 12 -25 7 -7 8 -12 2 -12 -5 0 -10 -25 -11 -55 -1 -30 -5 -64 -8 -76 -7
-19 -10 -17 -39 27 -21 32 -32 43 -34 31 -2 -9 1 -24 6 -34 11 -19 9 -96 -3
-125 -9 -22 -35 -24 -35 -4 0 8 -5 18 -10 21 -17 11 -6 -60 14 -90 10 -15 15
-29 12 -33 -3 -3 -7 -3 -9 -1 -2 2 -13 17 -25 33 l-22 28 -10 -27 c-6 -15 -13
-33 -17 -39 -3 -6 0 -5 8 2 20 19 31 14 19 -8 -6 -11 -14 -19 -18 -19 -20 3
-32 -3 -32 -16 0 -8 -4 -15 -8 -15 -5 0 -15 -12 -22 -27 -15 -32 -21 -105 -9
-97 15 9 10 -14 -7 -30 -20 -20 -37 -11 -28 16 8 28 -18 19 -31 -10 -5 -12
-13 -22 -17 -22 -5 0 -8 -5 -8 -11 0 -8 4 -8 14 0 10 8 16 9 21 1 3 -5 2 -10
-4 -10 -6 0 -13 -16 -17 -35 -9 -48 -24 -54 -24 -11 0 20 -4 36 -10 36 -12 0
-33 -77 -25 -90 3 -6 -1 -10 -9 -10 -15 0 -22 -28 -17 -67 1 -6 -3 -14 -9 -18
-6 -4 -10 6 -10 24 0 32 -19 54 -21 24 -1 -10 -1 -21 0 -25 0 -4 -8 -27 -19
-52 -14 -33 -23 -44 -35 -40 -8 3 -15 12 -15 20 0 8 -5 14 -11 14 -6 0 -9 -9
-6 -20 3 -11 1 -18 -4 -14 -5 3 -9 0 -9 -5 0 -6 5 -11 10 -11 17 0 11 -22 -16
-57 l-26 -34 -24 22 c-23 21 -30 17 -25 -14 3 -18 -21 -91 -35 -104 -13 -13
-16 -11 -25 16 -11 31 -28 42 -30 19 -1 -7 0 -28 1 -46 1 -28 -2 -32 -24 -32
-13 0 -28 5 -31 10 -3 6 -14 10 -24 10 -22 0 -34 -43 -18 -59 8 -8 8 -11 0
-11 -6 0 -9 -8 -6 -19 6 -25 -25 -36 -47 -16 -24 22 -31 19 -24 -11 7 -29 -12
-74 -32 -74 -8 0 -20 12 -27 27 l-14 26 -7 -39 c-15 -82 -24 -89 -72 -58 -28
19 -43 12 -25 -10 8 -9 10 -27 6 -45 -6 -30 -7 -30 -32 -14 -25 17 -25 16 -19
-4 10 -30 -20 -38 -51 -13 -34 26 -38 21 -18 -25 8 -21 14 -39 13 -40 -2 -1
-25 -5 -52 -8 -45 -4 -51 -2 -87 30 -48 44 -49 37 -4 -23 19 -25 35 -54 35
-64 0 -27 -38 -31 -83 -9 -37 20 -39 20 -32 2 12 -29 18 -63 11 -63 -16 0 -53
24 -73 49 l-21 26 5 -65 c3 -37 12 -73 21 -83 21 -24 8 -33 -14 -9 -11 11 -38
30 -61 42 -24 12 -43 26 -43 31 0 5 -5 9 -10 9 -6 0 -4 -14 4 -35 8 -19 11
-35 6 -35 -5 0 -7 -13 -3 -30 7 -36 -4 -38 -42 -8 l-27 21 7 -24 c4 -13 10
-30 12 -36 10 -27 -14 -11 -76 50 -49 47 -57 52 -32 21 29 -37 54 -114 37
-114 -4 0 -19 8 -34 17 l-27 17 19 -22 c28 -32 12 -39 -37 -14 l-42 22 -3 -25
c-2 -14 -7 -25 -12 -25 -4 0 -6 -8 -3 -19 8 -31 -16 -34 -56 -7 -40 28 -57 32
-63 16 -4 -14 -60 5 -111 37 -56 35 -199 164 -204 184 -3 10 -14 21 -24 24
-18 6 -21 11 -23 45 -1 9 -9 14 -22 12 -16 -2 -35 13 -70 55 -27 31 -60 67
-74 80 -24 22 -50 30 -50 16 0 -10 151 -157 182 -177 15 -10 33 -31 40 -47 7
-16 16 -29 19 -29 4 0 28 -25 54 -55 25 -30 44 -55 42 -55 -3 0 -73 67 -156
148 -150 148 -234 251 -192 237 36 -11 33 15 -3 30 -20 9 -36 19 -36 24 0 14
52 5 64 -10 6 -8 20 -21 31 -29 15 -11 14 -7 -4 13 -27 30 -21 50 7 24 17 -16
92 -51 92 -43 0 2 -49 35 -108 74 -79 51 -115 69 -130 65 -13 -3 -22 -1 -22 6
0 6 5 11 11 11 6 0 8 7 5 17 -4 9 -1 20 6 25 8 5 -1 7 -22 3 -43 -7 -71 8 -52
27 9 9 15 8 28 -8 15 -18 15 -18 4 4 -6 12 -18 22 -27 22 -13 0 -13 3 -3 15 9
11 9 15 1 15 -7 0 -9 9 -5 25 4 15 2 25 -5 25 -6 0 -11 -5 -11 -11 0 -5 -4 -7
-10 -4 -6 3 -10 -5 -10 -19 0 -46 -31 -39 -43 9 -4 18 -5 18 -6 -2 -1 -22 -11
-29 -24 -17 -3 3 -1 17 4 31 8 21 7 24 -7 19 -8 -3 -19 -6 -22 -6 -4 0 0 -4 8
-10 8 -5 11 -12 7 -16 -12 -12 -36 17 -39 48 -2 18 -8 33 -14 35 -7 2 -9 -8
-6 -28 3 -24 1 -30 -9 -27 -8 3 -15 15 -17 29 -6 52 -14 55 -33 14 l-19 -40 5
43 c4 33 2 43 -7 40 -7 -3 -13 -11 -13 -18 0 -7 -6 -15 -13 -17 -8 -3 -12 6
-12 26 0 16 -4 32 -9 35 -16 10 -41 -5 -41 -25 0 -29 -19 -23 -26 9 -7 29 -57
82 -77 82 -7 0 3 -12 21 -26 18 -14 29 -30 26 -35 -3 -6 -17 2 -30 16 -13 14
-29 23 -34 20 -6 -3 -13 2 -17 12 -6 19 -42 52 -57 53 -5 0 -2 -8 6 -17 18
-21 32 -83 18 -83 -5 0 -11 9 -15 20 -8 25 -103 110 -123 110 -14 0 -14 -2 0
-17 20 -23 61 -104 55 -109 -2 -3 -42 34 -88 81 -47 47 -91 85 -98 85 -11 0
-11 -3 -1 -14 6 -8 10 -25 8 -38 l-3 -23 -25 26 c-14 14 -40 42 -58 64 -39 46
-62 38 -43 -16 6 -18 9 -34 6 -37 -11 -11 -64 61 -67 91 -4 47 -30 45 -50 -4
-10 -23 -22 -38 -28 -34 -14 9 -13 65 3 65 8 0 7 3 -3 9 -8 6 -18 7 -23 4 -6
-4 -8 5 -5 21 4 17 1 25 -6 23 -6 -2 -10 -20 -10 -41 1 -20 -3 -36 -9 -36 -6
0 -8 3 -5 6 4 3 0 20 -7 37 -7 18 -11 44 -8 59 4 20 0 29 -16 37 -19 10 -21 9
-21 -13 0 -14 -5 -28 -10 -31 -5 -3 -10 -15 -10 -26 0 -10 -4 -19 -10 -19 -5
0 -10 17 -10 38 0 52 -10 82 -26 82 -8 0 -14 -10 -14 -22 -1 -13 -7 -36 -14
-53 -13 -29 -13 -29 -20 37 -11 102 -45 104 -47 3 l0 -50 -15 54 c-8 29 -13
61 -12 70 2 13 -4 15 -34 13 -35 -3 -38 -1 -38 21 0 28 -37 57 -72 57 -13 0
-52 14 -88 31 -60 28 -72 31 -144 27 l-78 -5 51 19 c54 20 63 40 20 47 -13 1
-26 6 -29 11 -7 10 -113 49 -175 64 l-50 13 40 6 c69 12 197 7 270 -9 98 -21
227 -42 220 -36 -3 3 5 12 17 19 22 12 22 12 3 14 -20 1 29 15 93 26 l33 5
-38 28 c-42 31 -149 90 -119 66 11 -9 16 -16 12 -16 -5 0 -3 -7 4 -15 18 -22
11 -19 -66 22 l-69 38 -200 -1 c-171 -1 -213 -4 -289 -23 -135 -34 -175 -49
-234 -93 -49 -37 -60 -40 -111 -39 -157 4 -189 7 -183 15 3 5 -2 7 -11 3 -18
-7 -173 38 -182 53 -10 16 -35 12 -35 -5 0 -8 4 -15 9 -15 5 0 13 -25 17 -56
3 -31 10 -51 14 -44 10 16 20 -158 20 -361 l0 -176 -35 -31 c-19 -18 -39 -32
-45 -32 -5 0 -10 -7 -10 -15 0 -8 -7 -15 -15 -15 -8 0 -15 -7 -15 -16 0 -8 -5
-12 -10 -9 -6 4 -13 -7 -16 -24 -4 -17 -10 -31 -14 -31 -5 0 -11 -13 -15 -30
-4 -16 -11 -30 -16 -30 -5 0 -9 -13 -9 -29 0 -16 -7 -36 -15 -45 -8 -8 -15
-26 -15 -40 0 -16 -6 -26 -15 -26 -9 0 -15 -9 -15 -24 0 -13 -7 -26 -15 -30
-8 -3 -15 -16 -15 -30 0 -13 -7 -26 -15 -30 -8 -3 -15 -12 -15 -21 0 -8 -4
-15 -10 -15 -5 0 -10 -16 -10 -35 0 -22 -6 -38 -15 -41 -8 -4 -15 -17 -15 -30
0 -15 -6 -24 -15 -24 -8 0 -15 -7 -15 -15 0 -8 -4 -15 -10 -15 -5 0 -10 -6
-10 -14 0 -8 -20 -35 -45 -59 -25 -25 -45 -50 -45 -56 0 -6 -7 -11 -15 -11 -8
0 -15 -7 -15 -15 0 -8 -7 -15 -15 -15 -8 0 -15 -7 -15 -15 0 -8 -7 -15 -15
-15 -8 0 -15 -4 -15 -10 0 -5 -11 -12 -25 -16 -14 -3 -25 -10 -25 -14 0 -5
-13 -11 -30 -15 -16 -4 -30 -11 -30 -16 0 -5 -31 -9 -70 -9 -56 0 -70 -3 -70
-15 0 -21 -76 -21 -84 0 -3 10 -19 15 -46 15 -22 0 -40 5 -40 10 0 6 -7 10
-15 10 -23 0 -18 -21 19 -78 19 -28 31 -52 26 -52 -21 0 -120 35 -120 42 0 4
-11 8 -24 8 -14 0 -31 7 -40 15 -8 8 -22 15 -30 15 -9 0 -16 7 -16 15 0 9 -9
15 -25 15 -16 0 -25 6 -25 15 0 8 -5 15 -10 15 -6 0 -21 11 -33 24 -29 31 -65
42 -73 23 -6 -16 68 -196 97 -239 11 -14 19 -30 19 -34 0 -13 -126 164 -146
206 -26 55 -54 54 -54 0 0 -29 4 -40 15 -40 11 0 15 -11 15 -40 0 -22 3 -40 8
-40 4 0 16 -20 27 -45 11 -25 24 -45 30 -45 5 0 19 -20 30 -45 11 -25 25 -45
32 -45 7 0 13 -11 13 -25 0 -16 6 -25 15 -25 8 0 15 -7 15 -15 0 -8 7 -15 15
-15 8 0 15 -7 15 -15 0 -8 5 -15 11 -15 14 0 39 -25 39 -39 0 -6 7 -11 15 -11
8 0 15 -7 15 -15 0 -8 7 -15 15 -15 8 0 15 -4 15 -10 0 -5 11 -12 25 -16 14
-3 25 -12 25 -20 0 -8 5 -14 10 -14 6 0 21 -11 33 -24 13 -14 35 -28 50 -31
15 -4 27 -11 27 -15 0 -4 11 -11 25 -14 14 -4 25 -11 25 -16 0 -6 15 -10 34
-10 18 0 39 -7 46 -15 8 -9 29 -15 55 -15 26 0 45 -5 47 -12 4 -10 59 -13 233
-13 174 0 229 3 232 13 3 8 25 12 62 12 31 0 62 5 69 12 9 9 12 7 12 -9 0 -11
-7 -23 -15 -27 -10 -3 -15 -19 -15 -46 0 -29 4 -40 15 -40 16 0 19 -18 17 -98
-1 -29 3 -45 13 -48 11 -5 15 -22 15 -65 0 -39 4 -59 12 -59 9 0 9 -3 0 -12
-16 -16 -15 -49 2 -73 7 -11 17 -56 20 -100 18 -210 18 -218 4 -226 -11 -8
-11 -11 1 -18 19 -12 22 -142 4 -148 -7 -3 -13 -16 -13 -29 0 -15 -6 -24 -15
-24 -10 0 -15 -10 -15 -30 0 -16 5 -30 10 -30 12 0 -9 -41 -27 -53 -7 -4 -13
-25 -13 -47 0 -21 -5 -40 -11 -42 -6 -2 -14 -27 -17 -56 -2 -29 -8 -52 -12
-52 -4 0 -11 -11 -14 -25 -4 -14 -11 -25 -16 -25 -6 0 -10 -20 -10 -45 0 -33
-4 -45 -15 -45 -9 0 -15 -10 -15 -26 0 -14 -7 -32 -15 -40 -9 -9 -15 -34 -15
-60 0 -24 -4 -44 -10 -44 -5 0 -13 -18 -16 -40 -4 -22 -10 -40 -14 -40 -4 0
-10 -32 -14 -72 -4 -40 -12 -75 -18 -79 -13 -8 -12 -320 1 -329 5 -3 10 -36
13 -73 2 -38 9 -71 15 -75 6 -4 12 -36 15 -71 3 -37 10 -67 16 -69 7 -2 12
-16 12 -32 0 -16 7 -35 15 -44 8 -8 15 -31 15 -51 0 -20 7 -43 15 -51 8 -9 15
-29 15 -45 0 -25 4 -29 28 -30 15 0 21 -3 15 -6 -15 -5 -18 -43 -4 -43 5 0 12
-13 16 -30 4 -17 10 -30 15 -30 4 0 11 -11 14 -25 4 -14 11 -25 16 -25 6 0 10
-7 10 -15 0 -8 8 -24 17 -35 13 -15 19 -17 26 -7 6 8 7 7 4 -5 -8 -23 14 -88
30 -88 7 0 13 -7 13 -15 0 -8 4 -15 9 -15 5 0 12 -11 15 -25 4 -14 11 -25 16
-25 6 0 10 -7 10 -15 0 -8 7 -15 15 -15 8 0 15 -7 15 -15 0 -8 7 -15 15 -15 8
0 15 -5 15 -10 0 -20 67 -80 89 -80 16 0 21 -6 21 -25 0 -16 6 -25 15 -25 8 0
15 -7 15 -15 0 -8 5 -15 11 -15 6 0 28 -17 48 -39 20 -21 46 -41 59 -45 12 -4
22 -12 22 -17 0 -5 6 -9 14 -9 7 0 19 -7 26 -15 7 -8 20 -15 30 -15 10 0 20
-7 24 -15 3 -9 18 -15 35 -15 16 0 31 -6 35 -15 3 -10 19 -15 43 -15 28 0 34
-3 23 -10 -13 -8 -12 -10 3 -10 9 0 17 -7 17 -15 0 -10 10 -15 29 -15 16 0 31
-6 35 -15 3 -8 15 -15 26 -15 11 0 20 -7 20 -15 0 -11 12 -15 45 -15 33 0 45
-4 45 -15 0 -10 10 -15 30 -15 27 0 30 -3 30 -29 l0 -30 54 6 c57 6 146 -3
145 -15 -5 -30 3 -42 26 -42 16 0 25 6 25 15 0 13 20 15 123 15 68 0 127 4
133 10 5 5 41 14 79 19 104 15 189 33 195 41 3 4 41 10 85 14 44 3 101 9 128
12 29 3 47 1 47 -5 0 -6 7 -8 15 -5 11 4 13 2 10 -9 -4 -8 1 -17 11 -21 24 -9
384 5 384 16 0 4 60 8 133 8 245 0 631 13 612 21 -11 4 453 8 1030 8 l1050 1
51 68 c28 37 89 126 135 197 253 389 241 369 250 373 5 2 9 8 9 12 0 5 44 71
98 147 227 319 321 471 447 718 51 99 102 196 114 215 11 19 21 42 21 51 0 20
36 52 78 69 46 18 62 36 62 70 0 22 6 30 31 39 18 6 43 11 56 11 29 0 37 18
24 53 -13 34 -5 54 22 63 12 3 37 17 55 31 25 19 32 31 32 58 0 36 19 61 56
75 13 5 27 24 34 47 7 21 33 57 57 81 38 37 43 47 38 72 -6 26 -3 30 42 53
l48 24 0 60 c0 46 5 68 21 90 37 50 96 285 79 313 -3 4 4 29 15 55 22 51 25
81 10 87 -5 2 2 27 17 56 l26 53 -21 28 c-20 27 -20 30 -5 72 18 50 13 89 -17
119 -19 19 -19 19 11 51 34 37 37 59 8 85 -41 37 -43 52 -10 90 17 19 31 39
31 45 0 5 -20 24 -45 41 -25 18 -45 35 -45 38 0 3 14 16 30 28 35 27 38 47 9
71 -18 14 -20 21 -11 37 8 14 7 23 -5 36 -13 15 -12 20 8 48 24 31 21 40 -15
53 -5 2 -1 15 9 30 15 24 16 27 1 27 -21 0 -21 19 1 35 15 11 14 15 -10 39
-16 16 -24 32 -20 39 4 7 6 22 4 35 -2 17 3 25 18 29 12 3 21 8 21 11 0 4 -19
26 -42 50 l-43 43 28 20 c15 12 27 25 27 31 0 6 -17 26 -37 46 l-37 35 22 17
c20 17 22 50 2 50 -4 0 -15 12 -25 26 -17 26 -16 27 18 63 19 20 37 46 40 58
5 21 2 23 -38 23 -51 0 -60 9 -39 38 14 21 45 31 43 15 -4 -24 4 -33 29 -32
15 0 21 3 15 6 -15 5 -18 33 -4 33 5 0 11 -5 13 -11 4 -12 93 76 136 136 30
42 62 96 119 201 40 74 51 84 133 120 180 79 241 135 404 368 65 94 76 105 76
80 0 -16 -5 -45 -10 -64 -63 -229 -74 -294 -45 -270 8 7 13 16 10 20 -3 4 1
13 9 19 11 9 15 9 19 -1 4 -10 6 -10 6 0 1 6 6 12 12 12 13 0 5 -38 -16 -85
-23 -49 -55 -135 -55 -146 0 -6 16 -1 35 11 41 25 48 10 13 -28 l-23 -25 22
12 c12 6 26 17 30 24 8 13 43 31 43 22 0 -3 -20 -33 -45 -67 -51 -70 -58 -96
-22 -77 12 6 31 19 41 28 19 16 19 15 3 -9 -9 -14 -30 -34 -47 -45 -45 -30
-46 -47 -2 -28 20 8 46 22 57 29 34 24 50 10 21 -19 -8 -7 -26 -37 -41 -65
-15 -29 -31 -55 -36 -58 -5 -3 -9 -9 -9 -15 0 -18 22 -8 57 26 36 35 54 46 36
23 -13 -17 -56 -139 -51 -144 3 -2 28 8 57 22 70 33 84 26 27 -14 -60 -43 -68
-57 -29 -49 l30 6 -28 -29 c-26 -25 -39 -60 -23 -60 3 0 37 15 75 34 39 19 69
29 67 23 -2 -7 -24 -22 -48 -35 -24 -12 -51 -29 -59 -37 -25 -24 -4 -29 28 -5
39 27 39 16 0 -44 -17 -26 -29 -50 -25 -53 3 -4 22 1 41 10 47 23 63 21 34 -2
-32 -26 -18 -37 18 -14 l28 18 -32 -44 c-32 -43 -42 -71 -25 -71 4 0 25 11 47
25 60 36 62 31 11 -26 -26 -29 -45 -57 -43 -63 4 -12 43 -13 70 -1 13 6 16 4
11 -9 -7 -18 13 -14 54 12 32 21 27 7 -11 -31 -35 -34 -64 -83 -55 -92 3 -3
28 6 56 20 69 34 74 31 19 -11 -48 -37 -58 -54 -33 -54 8 0 16 -5 18 -11 3 -8
18 -4 46 10 59 30 62 27 15 -21 -69 -72 -78 -116 -15 -72 31 22 37 12 17 -28
l-17 -33 33 31 c30 28 129 80 129 69 0 -3 -21 -16 -47 -29 -27 -13 -58 -38
-70 -54 -22 -30 -22 -62 1 -62 6 0 21 -3 33 -6 13 -4 28 1 40 13 10 10 28 24
38 32 11 7 -4 -10 -33 -38 -57 -54 -63 -81 -17 -81 37 0 37 0 77 -48 43 -53
42 -47 73 -343 58 -550 153 -1189 222 -1484 70 -308 244 -861 307 -980 9 -16
16 -33 16 -37 0 -18 150 -338 200 -428 26 -47 70 -128 97 -180 62 -120 125
-225 216 -362 l70 -108 58 0 c39 0 63 5 73 16 20 20 21 63 1 70 -8 4 -15 17
-15 30 0 15 -6 24 -15 24 -8 0 -15 5 -15 10 0 6 -11 21 -24 33 -13 12 -26 32
-30 45 -4 12 -12 22 -17 22 -5 0 -9 7 -9 15 0 9 -6 18 -14 21 -8 3 -17 16 -20
30 -4 13 -11 24 -16 24 -6 0 -10 7 -10 15 0 8 -7 15 -15 15 -9 0 -15 9 -15 25
0 14 -4 25 -9 25 -5 0 -12 14 -16 30 -4 17 -10 30 -15 30 -4 0 -11 11 -14 25
-4 14 -11 25 -16 25 -6 0 -10 9 -10 19 0 11 -6 26 -13 33 -8 7 -17 26 -21 41
-3 15 -11 27 -16 27 -6 0 -10 7 -10 15 0 8 -4 15 -9 15 -5 0 -12 13 -16 30 -4
16 -11 30 -16 30 -5 0 -9 11 -9 25 0 16 -6 25 -15 25 -10 0 -15 10 -15 30 0
20 -5 30 -15 30 -10 0 -15 10 -15 30 0 20 -5 30 -15 30 -9 0 -15 9 -15 25 0
14 -4 25 -10 25 -5 0 -13 18 -16 40 -4 22 -10 40 -14 40 -5 0 -11 13 -15 30
-4 16 -11 30 -16 30 -5 0 -9 11 -9 25 0 14 -7 28 -15 31 -8 4 -15 18 -15 34 0
16 -7 35 -15 44 -8 8 -15 31 -15 50 0 25 -4 36 -15 36 -10 0 -15 10 -15 31 0
17 -7 37 -15 45 -8 9 -15 29 -15 45 0 16 -4 29 -9 29 -5 0 -11 23 -15 50 -4
28 -10 50 -15 50 -5 0 -11 21 -14 47 -3 26 -10 49 -16 51 -6 2 -11 27 -11 58
0 41 -4 54 -15 54 -12 0 -15 14 -15 66 0 45 -5 70 -15 80 -9 9 -15 34 -15 60
0 24 -4 44 -9 44 -5 0 -12 25 -16 55 -3 30 -10 55 -14 55 -5 0 -11 30 -14 67
-4 37 -11 69 -16 72 -4 3 -10 37 -13 75 -2 42 -9 71 -16 74 -8 2 -12 28 -12
72 0 48 -5 73 -15 84 -11 10 -15 37 -15 94 0 48 -4 82 -11 84 -6 2 -13 46 -16
101 -3 53 -9 97 -13 97 -4 0 -10 48 -14 107 -3 59 -10 109 -15 112 -5 3 -11
55 -13 115 -2 76 -7 111 -15 114 -10 3 -13 38 -13 132 0 101 -3 132 -15 144
-12 12 -15 54 -15 246 0 192 3 234 15 246 10 11 15 36 15 84 0 45 4 70 12 72
8 3 14 34 16 89 3 46 8 86 13 90 5 3 12 71 15 152 4 81 10 147 14 147 4 0 10
120 13 267 4 173 10 269 16 271 6 2 11 33 11 73 0 55 3 69 15 69 11 0 15 11
15 41 0 23 7 47 15 55 8 9 15 29 15 45 0 16 4 29 9 29 5 0 12 13 16 30 4 16
10 30 15 30 4 0 10 18 14 40 3 22 11 40 16 40 6 0 10 11 10 25 0 14 7 28 15
31 8 4 15 17 15 31 0 13 7 31 15 39 8 9 15 26 15 39 0 12 7 25 15 29 8 3 15
16 15 30 0 13 7 26 15 30 8 3 15 17 15 31 0 14 4 25 9 25 5 0 12 13 16 30 4
16 11 30 16 30 5 0 9 12 9 26 0 14 7 32 15 40 8 9 15 29 15 45 0 19 5 29 15
29 11 0 15 11 15 39 0 25 5 41 15 45 10 3 15 19 15 46 0 22 4 40 9 40 5 0 13
25 16 55 4 30 11 55 16 55 5 0 9 88 9 195 0 107 -4 195 -9 195 -5 0 -12 20
-15 45 -4 25 -11 45 -17 45 -5 0 -9 13 -9 29 0 16 -6 36 -13 43 -8 7 -17 31
-20 53 -4 22 -11 41 -17 43 -5 2 -10 15 -10 28 0 14 -7 27 -15 30 -9 4 -15 19
-15 40 0 22 -6 37 -15 40 -9 4 -15 19 -15 35 0 16 -4 29 -9 29 -5 0 -11 18
-15 40 -3 22 -11 40 -16 40 -6 0 -10 36 -10 85 0 50 4 85 10 85 6 0 10 10 10
23 0 12 6 34 14 48 7 14 16 42 20 62 4 21 11 37 16 37 6 0 10 25 10 55 0 42 3
55 15 55 11 0 15 13 15 54 0 39 4 55 15 60 11 4 15 22 15 70 0 41 4 66 12 68
7 3 14 32 16 71 2 37 8 67 12 67 5 0 12 45 15 100 4 55 11 100 15 100 5 0 10
44 12 97 2 66 7 98 16 101 9 3 12 40 12 142 0 102 3 139 13 142 9 3 13 46 15
154 2 98 7 151 15 156 7 4 13 41 15 85 3 43 8 81 13 84 5 3 12 33 15 67 4 34
11 62 15 62 5 0 9 15 9 34 0 19 7 41 15 50 8 8 15 32 15 55 0 30 4 41 15 41
11 0 15 11 15 40 0 29 4 40 15 40 9 0 15 9 15 24 0 13 7 37 15 52 8 16 15 37
15 46 0 9 5 18 11 20 6 2 12 16 12 31 1 15 8 27 15 27 6 0 12 12 12 26 0 14 7
32 15 40 8 9 15 27 15 40 0 14 7 32 15 40 9 9 15 34 15 59 0 29 5 45 15 49 10
3 15 19 15 46 0 22 4 40 9 40 6 0 13 32 17 70 3 39 10 70 14 70 4 0 10 54 13
119 4 65 11 131 17 146 12 32 13 155 1 155 -4 0 -11 64 -15 142 -4 78 -11 145
-15 148 -5 3 -11 27 -14 55 -3 27 -10 51 -16 53 -6 2 -11 19 -11 38 0 22 -6
37 -15 40 -9 4 -15 19 -15 35 0 19 -5 29 -15 29 -8 0 -15 9 -15 19 0 21 -27
76 -47 99 -7 7 -13 20 -13 28 0 8 -4 14 -10 14 -5 0 -10 7 -10 15 0 8 -7 15
-15 15 -8 0 -15 7 -15 15 0 8 -7 15 -15 15 -8 0 -15 7 -15 15 0 8 -7 15 -15
15 -8 0 -15 7 -15 15 0 8 -5 15 -10 15 -6 0 -30 18 -52 40 -23 22 -50 40 -60
40 -10 0 -18 7 -18 15 0 9 -9 15 -24 15 -13 0 -26 7 -30 15 -3 8 -17 15 -31
15 -14 0 -25 4 -25 9 0 5 -13 12 -30 16 -16 4 -30 10 -30 15 0 4 -24 11 -52
15 -29 4 -55 11 -58 16 -7 10 -95 14 -135 5 l-30 -6 28 12 c15 7 27 15 27 20
0 4 18 8 39 8 22 0 41 5 43 12 3 9 52 13 171 16 92 3 167 8 167 12 0 5 14 11
30 15 17 4 30 10 30 15 0 4 11 11 25 14 14 4 25 11 25 16 0 6 7 10 15 10 8 0
15 7 15 15 0 8 7 15 15 15 8 0 15 7 15 15 0 8 7 15 15 15 8 0 15 5 15 11 0 7
11 22 25 35 14 13 25 28 25 34 0 5 4 10 10 10 5 0 12 11 16 25 3 14 12 25 20
25 8 0 14 7 14 15 0 8 4 15 10 15 5 0 12 11 16 25 3 14 10 25 14 25 5 0 11 14
15 30 4 17 10 30 15 30 4 0 11 11 14 25 4 14 11 25 16 25 6 0 10 14 10 30 0
20 5 30 15 30 11 0 15 11 15 39 0 25 5 41 15 45 8 3 15 17 15 31 0 14 4 25 9
25 5 0 12 16 15 35 12 61 -16 106 -30 50 -3 -14 -11 -25 -16 -25 -13 0 -38
-26 -38 -39 0 -6 -7 -11 -15 -11 -8 0 -15 -7 -15 -15 0 -8 -7 -15 -15 -15 -8
0 -15 -6 -15 -14 0 -8 -11 -17 -25 -20 -14 -4 -25 -11 -25 -16 0 -6 -7 -10
-15 -10 -8 0 -15 -7 -15 -15 0 -8 -7 -15 -15 -15 -8 0 -15 -4 -15 -9 0 -5 -13
-12 -30 -16 -16 -4 -30 -10 -30 -15 0 -4 -11 -11 -25 -14 -14 -4 -25 -10 -25
-15 0 -5 -13 -12 -30 -16 -16 -4 -30 -11 -30 -16 0 -5 -18 -9 -40 -9 -29 0
-40 -4 -40 -15 0 -10 -10 -15 -30 -15 -16 0 -30 -4 -30 -10 0 -5 -8 -10 -17
-10 -11 0 6 21 45 58 39 37 62 66 62 80 0 13 6 22 15 22 8 0 15 7 15 15 0 8 5
15 10 15 6 0 10 7 10 15 0 8 7 15 15 15 9 0 15 9 15 25 0 15 6 25 14 25 9 0
16 16 19 48 3 26 9 67 15 92 14 64 10 222 -6 228 -8 2 -12 32 -12 98 0 75 -3
96 -15 100 -10 4 -15 20 -15 45 0 28 -4 39 -15 39 -12 0 -15 -14 -15 -69 0
-41 -4 -71 -11 -73 -6 -2 -13 -41 -16 -86 -3 -45 -10 -82 -14 -82 -4 0 -11
-16 -15 -35 -3 -19 -10 -35 -14 -35 -4 0 -11 -16 -14 -35 -4 -19 -11 -35 -16
-35 -6 0 -10 -6 -10 -14 0 -8 -7 -16 -15 -20 -8 -3 -15 -15 -15 -26 0 -11 -7
-20 -15 -20 -8 0 -15 -4 -15 -8 0 -7 -24 -46 -82 -131 -10 -14 -23 -36 -29
-48 -7 -13 -16 -23 -20 -23 -5 0 9 28 31 63 61 97 110 198 110 229 0 15 5 28
10 28 6 0 10 13 10 29 0 16 7 36 15 45 8 8 15 31 15 51 0 20 7 43 15 51 12 13
15 51 15 215 0 170 -2 199 -15 199 -11 0 -15 12 -15 45 0 25 -4 45 -10 45 -5
0 -12 11 -16 25 -3 14 -10 25 -14 25 -5 0 -11 14 -15 30 -4 17 -10 30 -15 30
-4 0 -11 11 -14 25 -4 14 -11 25 -16 25 -6 0 -10 7 -10 15 0 9 -7 18 -15 21
-8 4 -15 17 -15 30 0 15 -6 24 -15 24 -8 0 -15 7 -15 15 0 8 -4 15 -9 15 -5 0
-13 9 -16 21 -4 12 -25 39 -46 60 -21 21 -39 44 -39 49 0 6 -5 10 -11 10 -7 0
-22 11 -34 24 -12 13 -32 27 -43 31 -12 3 -22 11 -22 16 0 5 -7 9 -15 9 -8 0
-15 7 -15 15 0 8 -6 15 -14 15 -8 0 -16 7 -20 15 -3 8 -14 15 -25 15 -10 0
-21 7 -25 15 -3 8 -12 15 -21 15 -8 0 -15 4 -15 10 0 5 -11 12 -25 16 -14 3
-25 10 -25 14 0 4 -11 11 -25 14 -14 4 -25 11 -25 16 0 6 -9 10 -20 10 -11 0
-20 7 -20 15 0 10 -10 15 -30 15 -16 0 -30 4 -30 10 0 5 -11 12 -25 16 -14 3
-25 10 -25 15 0 5 -18 12 -40 15 -22 4 -40 10 -40 14 0 4 -19 10 -42 13 -24 3
-44 11 -46 16 -5 14 -282 15 -282 2 0 -6 -31 -13 -70 -17 -38 -3 -70 -10 -70
-14 0 -4 -18 -10 -40 -14 -22 -3 -40 -11 -40 -16 0 -6 -10 -10 -22 -10 -12 0
-31 -8 -42 -17 -12 -10 -15 -11 -8 -3 6 8 12 25 12 38 0 13 7 30 15 38 8 9 15
31 15 49 0 19 4 36 8 39 4 2 9 35 10 72 2 38 0 65 -3 62 -4 -4 -19 -42 -34
-85 -16 -43 -39 -103 -53 -133 -14 -30 -31 -71 -39 -90 -14 -36 -75 -147 -66
-120 3 8 31 74 62 145 87 202 98 251 90 405 -6 95 -11 130 -21 134 -8 3 -14
17 -14 31 0 14 -4 25 -9 25 -5 0 -12 12 -16 27 -3 15 -10 30 -14 33 -4 3 -17
22 -30 43 -12 20 -27 37 -32 37 -5 0 -9 7 -9 15 0 8 -7 15 -15 15 -8 0 -15 7
-15 15 0 8 -5 15 -11 15 -7 0 -22 11 -34 24 -12 13 -32 27 -43 31 -12 3 -22
11 -22 16 0 5 -7 9 -15 9 -8 0 -15 7 -15 15 0 9 -9 15 -24 15 -13 0 -26 7 -30
15 -3 8 -17 15 -31 15 -14 0 -25 4 -25 9 0 5 -13 12 -30 16 -16 4 -30 11 -30
16 0 5 -18 9 -40 9 -27 0 -43 5 -46 15 -5 11 -21 15 -60 15 -41 0 -54 4 -54
15 0 11 -13 15 -54 15 -33 0 -56 5 -58 12 -3 7 -32 14 -71 16 -37 2 -67 8 -67
12 0 4 -48 9 -106 12 -60 3 -109 9 -113 16 -3 6 -19 14 -34 17 -15 4 -27 11
-27 16 0 5 -11 9 -24 9 -13 0 -26 7 -30 15 -3 8 -17 15 -31 15 -16 0 -25 6
-25 15 0 10 -10 15 -30 15 -20 0 -30 5 -30 15 0 9 -9 15 -25 15 -14 0 -25 4
-25 9 0 5 -13 12 -30 16 -16 4 -30 10 -30 15 0 5 -13 11 -30 15 -16 4 -30 11
-30 16 0 5 -11 9 -25 9 -16 0 -25 6 -25 15 0 8 -9 15 -20 15 -11 0 -20 4 -20
10 0 5 -11 12 -25 16 -14 3 -25 10 -25 14 0 5 -13 11 -30 15 -16 4 -30 10 -30
15 0 4 -11 11 -25 14 -14 4 -25 11 -25 16 0 6 -13 10 -30 10 -20 0 -30 5 -30
15 0 9 -9 15 -24 15 -13 0 -26 7 -30 15 -3 8 -17 15 -31 15 -14 0 -25 4 -25 9
0 5 -13 12 -30 16 -16 4 -30 10 -30 15 0 4 -11 11 -25 14 -14 4 -25 11 -25 16
0 6 -13 10 -30 10 -20 0 -30 5 -30 15 0 11 -11 15 -40 15 -29 0 -40 4 -40 15
0 10 -10 15 -30 15 -20 0 -30 5 -30 15 0 10 -10 15 -30 15 -16 0 -30 4 -30 9
0 5 -13 12 -30 16 -16 4 -30 10 -30 15 0 4 -18 10 -40 14 -22 3 -40 11 -40 16
0 6 -18 10 -40 10 -29 0 -40 4 -40 15 0 11 -12 15 -45 15 -33 0 -45 4 -45 15
0 11 -13 15 -54 15 -32 0 -56 5 -58 12 -2 6 -30 13 -61 16 -31 2 -57 8 -57 12
0 4 -36 11 -80 15 -44 4 -80 11 -80 16 0 5 -122 9 -280 9 -180 0 -280 -4 -280
-10 0 -6 -31 -10 -72 -11 -40 0 -109 -5 -153 -10 -44 -5 -131 -14 -194 -19
-63 -5 -117 -13 -120 -18 -3 -6 -48 -11 -99 -13 -54 -3 -96 -9 -100 -15 -4 -7
-42 -13 -86 -16 -51 -2 -81 -8 -84 -16 -2 -8 -27 -12 -73 -12 -38 0 -69 -4
-69 -9 0 -5 -25 -13 -55 -16 -30 -4 -55 -11 -55 -15 0 -4 -30 -10 -67 -13 -37
-4 -69 -11 -72 -15 -3 -5 -49 -12 -101 -14 -56 -4 -96 -10 -98 -17 -4 -13
-172 -16 -172 -3 0 5 -59 12 -132 16 -102 5 -134 10 -141 21 -4 8 -15 15 -22
15 -8 0 -15 5 -15 10 0 6 -6 10 -14 10 -8 0 -16 7 -20 15 -3 8 -15 15 -26 15
-11 0 -20 5 -20 11 0 6 -13 24 -30 41 -16 16 -30 36 -30 44 0 8 -4 14 -10 14
-5 0 -10 7 -10 15 0 8 -7 15 -15 15 -8 0 -15 7 -15 15 0 8 -7 15 -15 15 -9 0
-15 9 -15 25 0 14 -7 28 -15 31 -8 4 -15 17 -15 30 0 15 -6 24 -15 24 -10 0
-15 10 -15 30 0 17 -4 30 -10 30 -5 0 -13 18 -16 40 -4 22 -10 40 -14 40 -4 0
-10 32 -12 72 -3 40 -11 74 -17 76 -14 5 -15 132 -1 132 5 0 12 17 16 37 4 20
18 46 30 58 13 12 24 27 24 34 0 6 7 11 15 11 8 0 15 7 15 15 0 9 7 18 15 21
8 4 15 17 15 30 0 15 6 24 15 24 10 0 15 10 15 31 0 29 -2 31 -27 24 -16 -3
-29 -11 -31 -16 -2 -5 -10 -9 -18 -9 -8 0 -14 -7 -14 -15 0 -8 -5 -15 -11 -15
-6 0 -31 -20 -56 -45 -24 -25 -51 -45 -59 -45 -8 0 -14 -4 -14 -10 0 -5 -7
-10 -15 -10 -8 0 -15 -7 -15 -15 0 -8 -7 -15 -15 -15 -8 0 -15 -7 -15 -15 0
-8 -5 -15 -11 -15 -14 0 -69 -55 -69 -69 0 -6 -7 -11 -15 -11 -8 0 -15 -7 -15
-15 0 -8 -7 -15 -15 -15 -8 0 -15 -7 -15 -15 0 -8 -7 -15 -15 -15 -8 0 -15 -7
-15 -15 0 -8 -5 -15 -11 -15 -14 0 -39 -25 -39 -39 0 -6 -7 -11 -15 -11 -8 0
-15 -7 -15 -15 0 -8 -7 -15 -15 -15 -8 0 -15 -5 -15 -10 0 -6 -11 -21 -25 -34
-14 -13 -25 -28 -25 -35 0 -6 -7 -11 -15 -11 -9 0 -15 -9 -15 -25 0 -16 -6
-25 -15 -25 -8 0 -15 -7 -15 -15 0 -8 -7 -15 -15 -15 -8 0 -15 -7 -15 -15 0
-8 -4 -15 -10 -15 -5 0 -10 -6 -10 -14 0 -8 -13 -27 -28 -43 -16 -15 -32 -40
-35 -56 -4 -15 -12 -27 -17 -27 -6 0 -10 -7 -10 -15 0 -8 -7 -15 -15 -15 -9 0
-15 -9 -15 -24 0 -13 -7 -26 -15 -30 -8 -3 -15 -17 -15 -31 0 -16 -6 -25 -15
-25 -8 0 -15 -7 -15 -15 0 -8 -4 -15 -9 -15 -5 0 -12 -13 -16 -30 -4 -16 -11
-30 -16 -30 -5 0 -9 -11 -9 -25 0 -14 -6 -25 -13 -25 -8 0 -24 -35 -40 -82
l-26 -83 2 70 c1 39 7 74 12 78 6 6 6 10 -2 14 -15 5 -18 53 -4 53 5 0 12 27
16 60 4 33 11 60 16 60 5 0 9 13 9 29 0 16 7 36 15 45 8 8 15 31 15 50 0 25 4
36 15 36 10 0 15 10 15 29 0 16 6 31 15 35 8 3 15 17 15 31 0 14 4 25 9 25 5
0 12 11 15 25 4 14 11 25 16 25 6 0 10 14 10 30 0 20 5 30 15 30 10 0 15 10
15 30 0 20 5 30 15 30 9 0 15 9 15 24 0 13 7 26 15 30 8 3 15 17 15 31 0 16 6
25 15 25 8 0 15 7 15 15 0 8 5 15 10 15 6 0 10 11 10 25 0 16 6 25 15 25 10 0
15 10 15 30 0 20 5 30 15 30 8 0 15 7 15 15 0 8 7 15 15 15 8 0 15 9 15 20 0
12 11 31 25 44 14 13 25 28 25 35 0 6 6 11 14 11 8 0 17 11 20 25 4 14 11 25
16 25 6 0 10 6 10 13 1 6 14 23 30 37 17 13 30 30 30 37 0 7 5 13 10 13 6 0
10 5 10 10 0 6 -11 10 -25 10 -16 0 -25 -6 -25 -15 0 -8 -7 -15 -15 -15 -8 0
-15 -7 -15 -15 0 -8 -7 -15 -15 -15 -8 0 -15 -4 -15 -10 0 -5 -7 -10 -15 -10
-8 0 -15 -7 -15 -15 0 -8 -7 -15 -15 -15 -8 0 -15 -7 -15 -15 0 -8 -5 -15 -11
-15 -14 0 -69 -55 -69 -69 0 -6 -7 -11 -15 -11 -8 0 -15 -7 -15 -15 0 -8 -7
-15 -15 -15 -8 0 -15 -7 -15 -15 0 -8 -7 -15 -15 -15 -8 0 -15 -7 -15 -15 0
-8 -5 -15 -11 -15 -14 0 -39 -25 -39 -39 0 -6 -7 -11 -15 -11 -8 0 -15 -7 -15
-15 0 -8 -7 -15 -15 -15 -8 0 -15 -5 -15 -10 0 -6 -11 -21 -25 -34 -14 -13
-25 -28 -25 -35 0 -6 -6 -11 -14 -11 -8 0 -17 -11 -20 -25 -4 -14 -11 -25 -16
-25 -6 0 -10 -7 -10 -15 0 -8 -7 -15 -15 -15 -8 0 -15 -6 -15 -14 0 -8 -7 -16
-15 -20 -8 -3 -15 -12 -15 -21 0 -9 -11 -26 -23 -38 -13 -12 -27 -34 -31 -49
-3 -16 -11 -28 -16 -28 -6 0 -10 -7 -10 -15 0 -8 -7 -15 -15 -15 -10 0 -15
-10 -15 -30 0 -16 -4 -30 -10 -30 -5 0 -12 -11 -16 -25 -3 -14 -10 -25 -14
-25 -5 0 -11 -13 -15 -30 -4 -16 -11 -30 -16 -30 -5 0 -9 -10 -9 -23 0 -23
-31 -57 -51 -57 -16 0 -8 492 9 498 8 2 12 29 12 88 0 68 3 84 15 84 12 0 15
13 15 56 0 36 5 61 15 70 8 9 15 33 15 55 0 21 4 39 10 39 5 0 12 16 16 35 3
19 10 35 15 35 5 0 9 16 9 35 0 22 6 38 15 41 9 4 15 19 15 41 0 19 7 41 15
49 8 9 15 24 15 35 0 29 -42 24 -68 -8z m3574 -1173 c6 -6 60 -12 120 -15 156
-5 248 -24 494 -102 140 -44 249 -85 442 -166 152 -63 193 -87 72 -41 -38 14
-144 52 -235 83 -91 32 -170 60 -175 63 -5 3 -40 15 -79 26 -38 12 -101 30
-139 42 -38 11 -130 27 -205 35 -75 9 -190 24 -256 34 -66 11 -174 23 -240 28
l-120 8 80 6 c140 10 231 9 241 -1z m63 -335 c42 -7 67 -13 55 -14 -43 -2
-282 20 -310 29 -40 13 157 1 255 -15z m-321 8 c-10 -2 -26 -2 -35 0 -10 3 -2
5 17 5 19 0 27 -2 18 -5z m445 -30 c-7 -2 -21 -2 -30 0 -10 3 -4 5 12 5 17 0
24 -2 18 -5z m87 -13 l25 -8 -25 0 c-14 0 -36 4 -50 8 l-25 8 25 0 c14 0 36
-4 50 -8z m-633 -12 c15 -6 36 -10 46 -9 9 1 43 -3 75 -10 31 -7 60 -12 63
-11 11 2 181 -46 187 -54 4 -4 -6 -4 -23 -1 -16 4 -64 12 -105 18 -41 6 -80
15 -86 20 -5 4 -19 6 -30 3 -11 -3 -60 8 -109 25 -50 17 -80 30 -68 31 12 0
34 -5 50 -12z m700 -4 c-3 -3 -12 -4 -19 -1 -8 3 -5 6 6 6 11 1 17 -2 13 -5z
m-740 -10 c-3 -3 -12 -4 -19 -1 -8 3 -5 6 6 6 11 1 17 -2 13 -5z m796 -1 c-7
-2 -21 -2 -30 0 -10 3 -4 5 12 5 17 0 24 -2 18 -5z m102 -23 c13 -5 14 -9 5
-9 -8 0 -24 4 -35 9 -13 5 -14 9 -5 9 8 0 24 -4 35 -9z m-790 -249 l50 -7 -44
-8 c-31 -6 -46 -5 -51 4 -4 7 -16 9 -28 6 -13 -5 -22 -1 -26 10 -5 14 -2 15
21 9 16 -4 51 -10 78 -14z m-85 -27 c41 -8 121 -22 178 -31 68 -11 102 -22
102 -30 0 -7 -9 -13 -21 -13 -36 0 -109 22 -103 31 3 6 -9 7 -28 4 -43 -8
-170 5 -144 15 18 6 18 7 2 13 -10 4 -25 3 -34 -2 -9 -5 -35 -6 -57 -2 -40 8
-40 8 -12 16 22 6 26 10 15 17 -9 7 -7 8 7 3 11 -3 54 -13 95 -21z m230 -4
c11 -8 7 -9 -15 -4 -37 8 -45 14 -19 14 10 0 26 -5 34 -10z m-404 -9 c55 -18
249 -59 307 -66 31 -3 57 -10 57 -14 0 -5 10 -6 23 -4 12 2 33 0 47 -6 25 -10
25 -10 2 -10 -15 -1 -21 -5 -16 -13 9 -13 -20 -10 -222 30 -120 23 -141 30
-138 45 1 9 -2 15 -7 11 -5 -3 -7 -10 -4 -15 4 -5 -3 -9 -14 -9 -25 0 -39 20
-14 20 10 1 1 7 -20 15 -62 22 -63 35 -1 16z m-333 -28 c-22 -8 -14 -23 13
-23 16 0 23 4 18 11 -9 15 35 9 141 -20 98 -25 99 -25 78 -3 -10 11 -21 17
-25 15 -4 -2 -9 1 -13 7 -9 15 16 12 81 -10 32 -11 81 -24 109 -29 54 -10 287
-54 373 -72 29 -6 50 -14 47 -19 -7 -12 31 -23 55 -15 11 3 30 3 41 0 17 -6
19 -9 8 -17 -10 -7 -7 -8 11 -4 34 7 77 -4 58 -15 -10 -7 -8 -9 6 -9 11 0 17
-2 14 -5 -3 -3 -34 2 -69 10 -156 39 -571 116 -564 105 3 -4 33 -13 67 -19 82
-16 99 -21 94 -29 -2 -4 12 -8 31 -9 20 -1 40 -9 47 -19 10 -12 20 -15 42 -10
18 4 24 3 16 -2 -10 -7 -4 -11 23 -16 20 -4 35 -9 32 -12 -4 -4 -125 15 -217
34 -25 6 -85 15 -135 22 -114 14 -329 50 -334 56 -3 2 21 3 52 0 33 -2 54 0
51 6 -3 5 5 6 20 2 15 -3 26 -2 26 4 0 5 -12 12 -27 15 -117 25 -179 40 -187
47 -10 10 1 30 17 29 9 0 9 -2 0 -6z m324 1 c-3 -3 -12 -4 -19 -1 -8 3 -5 6 6
6 11 1 17 -2 13 -5z m558 -44 c-3 -5 -16 -10 -28 -9 -21 0 -21 1 -2 9 28 12
37 12 30 0z m-862 -47 c-7 -2 -19 -2 -25 0 -7 3 -2 5 12 5 14 0 19 -2 13 -5z
m823 -21 c-10 -2 -22 0 -28 6 -6 6 0 7 19 4 21 -5 23 -7 9 -10z m-749 -117
c17 -8 36 -15 42 -15 6 0 68 -27 137 -60 69 -33 131 -60 137 -60 7 0 25 -13
40 -30 16 -16 35 -30 42 -30 7 0 15 -6 18 -14 3 -7 19 -16 37 -19 17 -4 29
-11 26 -16 -8 -13 -58 -6 -122 19 -30 11 -54 15 -54 10 0 -6 6 -10 12 -10 23
0 147 -63 142 -72 -3 -4 -17 -8 -32 -8 -26 -1 -26 -1 8 -17 22 -9 30 -17 21
-20 -7 -3 -17 0 -21 7 -5 8 -15 10 -26 5 -15 -6 -10 -10 26 -20 25 -7 36 -14
25 -15 l-20 -1 20 -9 c18 -8 18 -9 -5 -9 -26 -1 -94 20 -106 32 -4 4 -19 7
-33 7 l-26 -1 30 -16 c20 -11 25 -18 16 -21 -9 -3 -3 -11 20 -24 27 -15 29
-17 9 -13 -14 3 -41 12 -60 19 -19 8 -107 35 -195 60 -237 69 -235 68 -228 79
4 6 0 8 -10 4 -27 -10 -76 3 -70 19 6 16 -13 19 -22 4 -3 -5 -12 -10 -18 -10
-7 0 -6 4 3 10 8 5 15 15 15 22 0 18 -37 47 -52 41 -7 -3 -13 0 -13 6 0 6 5
11 11 11 5 0 7 5 4 10 -4 6 8 10 29 10 26 0 34 4 30 14 -7 17 35 29 53 14 7
-5 24 -7 39 -4 21 6 24 9 14 21 -7 8 -20 15 -29 15 -16 1 -57 32 -79 61 -9 12
-8 20 3 36 14 20 17 20 97 6 46 -8 97 -20 115 -28z m-237 15 c0 -5 -2 -10 -4
-10 -3 0 -8 5 -11 10 -3 6 -1 10 4 10 6 0 11 -4 11 -10z m975 -10 c4 -6 -6 -7
-27 -3 -44 8 -48 13 -10 13 17 0 34 -4 37 -10z m-585 -30 c8 -5 11 -10 5 -10
-5 0 -17 5 -25 10 -8 5 -10 10 -5 10 6 0 17 -5 25 -10z m704 1 c3 -4 -6 -6
-19 -3 -14 2 -25 6 -25 8 0 8 39 4 44 -5z m-649 -10 c-3 -5 7 -9 22 -9 41 1
134 -32 126 -45 -4 -6 0 -8 10 -4 19 7 67 -11 67 -25 0 -5 10 -6 21 -3 16 5
19 4 14 -6 -6 -8 -4 -11 7 -7 8 4 15 1 15 -6 0 -14 -180 47 -185 63 -2 5 -10
7 -18 4 -8 -3 -23 2 -33 11 -10 9 -20 13 -24 10 -9 -9 -48 6 -42 17 4 5 11 9
16 9 6 0 8 -4 4 -9z m330 -111 c8 -13 -5 -13 -25 0 -13 8 -13 10 2 10 9 0 20
-4 23 -10z m-4886 -126 c-12 -27 -26 -52 -31 -55 -7 -5 -68 -152 -68 -165 0
-3 6 -2 13 1 6 4 -3 -7 -20 -23 -19 -16 -33 -38 -33 -51 0 -14 -4 -20 -12 -15
-7 5 -9 2 -5 -9 3 -9 -1 -18 -10 -21 -8 -4 -13 -13 -9 -21 3 -8 1 -17 -5 -20
-5 -4 -8 -12 -7 -18 1 -7 -4 -22 -11 -35 -7 -13 -10 -30 -7 -38 3 -8 1 -14 -5
-14 -6 0 -7 -4 -4 -10 3 -5 1 -10 -5 -10 -6 0 -8 10 -6 23 36 164 75 264 151
389 24 40 54 90 65 111 29 54 35 41 9 -19z m3941 -16 c0 -6 9 -8 20 -5 20 5
67 -9 109 -32 13 -7 21 -9 18 -4 -7 12 44 8 69 -5 10 -5 75 -37 144 -70 129
-63 358 -186 445 -240 28 -17 66 -41 85 -52 19 -11 62 -38 95 -60 33 -22 75
-47 93 -56 17 -10 32 -21 32 -26 0 -5 -17 3 -37 17 -21 13 -65 38 -97 55 -33
17 -91 50 -130 74 -62 37 -142 83 -306 174 -79 44 -14 -9 90 -74 61 -38 89
-61 86 -71 -4 -10 -1 -11 13 -3 14 7 22 6 31 -5 9 -11 9 -15 1 -15 -6 0 -11 5
-11 11 0 5 -5 7 -11 3 -7 -4 -2 -13 15 -23 14 -8 26 -18 26 -21 0 -9 -99 -4
-107 5 -5 4 0 5 10 2 11 -4 16 -3 12 3 -3 6 -15 10 -25 10 -30 0 -50 11 -50
27 0 13 -3 13 -15 3 -12 -10 -15 -10 -15 0 0 7 -7 10 -16 6 -11 -4 -15 -2 -11
8 3 8 -1 17 -9 20 -9 3 -12 1 -9 -4 3 -6 1 -10 -5 -10 -6 0 -13 7 -16 15 -4 8
-14 15 -24 15 -11 0 -21 4 -24 9 -13 20 -94 48 -141 49 -27 1 -59 6 -70 11
-70 32 -97 42 -106 39 -6 -2 56 -40 138 -85 81 -45 167 -95 190 -112 24 -17
47 -31 53 -31 12 0 9 -22 -5 -32 -5 -4 -25 -8 -43 -8 -30 0 -32 -2 -18 -15 8
-8 20 -15 26 -15 7 0 9 -7 6 -16 -4 -10 2 -23 16 -33 27 -22 16 -45 -18 -37
-40 10 -27 -13 22 -42 54 -31 116 -90 108 -103 -3 -5 0 -9 7 -9 7 0 10 -3 7
-6 -6 -6 -123 71 -134 87 -3 5 -12 9 -21 9 -9 0 -25 8 -36 18 -13 10 -17 11
-12 3 6 -11 4 -13 -11 -7 -44 18 -47 17 -16 -3 18 -12 38 -18 44 -15 6 4 8 3
5 -4 -5 -6 0 -8 12 -5 21 5 64 -34 54 -50 -3 -5 3 -7 13 -4 24 8 82 -37 64
-48 -6 -4 -17 -2 -23 4 -6 6 -7 11 -3 11 5 0 3 7 -4 15 -18 21 -35 19 -19 -2
12 -16 12 -17 -1 -7 -8 6 -46 31 -85 56 -38 25 -103 67 -144 94 -40 27 -81 54
-90 59 -20 13 -201 129 -266 170 -27 18 -78 49 -112 70 -35 21 -60 41 -58 46
3 4 0 11 -6 15 -8 4 -9 3 -5 -4 10 -17 -5 -15 -40 7 -31 19 -42 51 -17 51 8 0
11 -4 8 -10 -3 -5 1 -10 9 -10 9 0 16 2 16 4 0 3 -31 25 -68 51 -38 25 -69 51
-69 58 0 7 15 12 38 12 21 1 36 -2 33 -6 -5 -9 76 -10 90 -1 6 3 27 7 46 7 19
1 46 4 60 8 14 4 19 4 12 1 -10 -5 -9 -9 5 -20 21 -16 43 -18 43 -4 0 6 -7 10
-16 10 -8 0 -12 4 -9 10 3 5 -5 25 -19 43 -28 37 -26 47 11 47 13 0 23 4 23 9
0 4 11 6 25 3 14 -2 25 -9 25 -14z m-559 -45 c13 -17 13 -17 -6 -3 -11 8 -22
16 -24 17 -2 2 0 3 6 3 6 0 17 -8 24 -17z m59 -39 c0 -2 -9 0 -20 6 -11 6 -20
13 -20 16 0 2 9 0 20 -6 11 -6 20 -13 20 -16z m51 -14 c-9 -5 -3 -12 18 -21
17 -8 31 -18 31 -22 0 -5 10 -7 23 -5 14 2 21 -2 19 -11 -2 -8 3 -11 11 -8 16
6 61 -22 65 -40 3 -19 -10 -16 -59 15 -24 16 -68 43 -96 61 -29 18 -53 34 -53
35 0 0 12 2 27 3 16 0 21 -2 14 -7z m1264 -20 c3 -6 -1 -7 -9 -4 -18 7 -21 14
-7 14 6 0 13 -4 16 -10z m-5575 -248 c-90 -185 -178 -408 -204 -517 -9 -38
-30 -117 -46 -175 -22 -78 -28 -92 -24 -55 3 28 17 88 31 135 14 47 31 110 37
140 7 30 22 78 33 105 104 255 132 321 171 392 25 46 47 82 48 80 2 -2 -19
-49 -46 -105z m5570 -80 c0 -13 -12 -22 -22 -16 -10 6 -1 24 13 24 5 0 9 -4 9
-8z m-220 -26 c0 -2 -7 -7 -16 -10 -8 -3 -12 -2 -9 4 6 10 25 14 25 6z m-4759
-57 c-5 -13 -10 -19 -10 -12 -1 15 10 45 15 40 3 -2 0 -15 -5 -28z m4713 -15
c3 -8 2 -12 -4 -9 -6 3 -10 10 -10 16 0 14 7 11 14 -7z m4664 -9 c65 -15 130
-44 171 -76 32 -26 22 -24 -30 5 -103 57 -170 70 -359 71 -152 0 -185 -3 -253
-22 -42 -13 -81 -23 -85 -22 -18 1 79 33 138 44 94 18 340 18 418 0z m-4067
-22 c13 -16 12 -17 -3 -4 -17 13 -22 21 -14 21 2 0 10 -8 17 -17z m3887 -20
c-26 -2 -71 -2 -100 0 -29 2 -8 3 47 3 55 0 79 -1 53 -3z m-527 -90 c-22 -45
-45 -85 -52 -89 -7 -4 -4 8 8 27 11 19 26 50 33 69 16 40 41 82 46 77 2 -2
-14 -40 -35 -84z m352 80 c-7 -2 -21 -2 -30 0 -10 3 -4 5 12 5 17 0 24 -2 18
-5z m290 0 c-7 -2 -19 -2 -25 0 -7 3 -2 5 12 5 14 0 19 -2 13 -5z m-363 -10
c-111 -41 -172 -61 -165 -54 6 4 33 16 60 26 28 10 54 22 60 27 5 4 20 8 35 7
15 0 19 -3 10 -6z m445 -8 l30 -14 -30 6 c-16 3 -37 9 -45 14 -27 15 11 10 45
-6z m-6320 -65 c3 -5 2 -10 -4 -10 -5 0 -13 5 -16 10 -3 6 -2 10 4 10 5 0 13
-4 16 -10z m195 -62 c0 -11 -28 -10 -35 1 -3 6 4 9 15 8 11 -1 20 -5 20 -9z
m55 -23 c28 -9 52 -45 30 -45 -8 0 -15 7 -15 16 0 9 -6 14 -12 11 -15 -5 -48
10 -48 22 0 9 8 9 45 -4z m1533 2 c-1 -2 4 -12 12 -22 15 -18 14 -18 -13 0
-21 13 -25 20 -15 26 12 8 23 5 16 -4z m-18 -32 c19 -14 35 -32 36 -40 1 -8
-2 -13 -7 -9 -5 3 -6 10 -3 16 5 8 1 9 -10 5 -20 -8 -80 29 -71 44 9 14 18 11
55 -16z m-1594 0 c10 -8 15 -14 9 -14 -5 0 -19 6 -29 14 -11 8 -15 15 -10 15
6 0 19 -7 30 -15z m365 2 c-7 -7 -14 -8 -21 -1 -6 6 -2 10 12 11 16 2 18 -1 9
-10z m84 -17 c17 -4 40 -12 52 -18 12 -7 31 -12 42 -12 12 0 21 -4 21 -9 0 -9
93 -35 163 -46 20 -3 37 -10 37 -14 0 -5 18 -9 40 -9 42 -1 63 -9 56 -20 -2
-4 13 -8 35 -8 21 -1 45 -6 51 -11 7 -6 31 -14 52 -17 26 -5 35 -10 26 -16
-17 -10 24 -24 42 -14 7 4 10 4 6 -1 -4 -4 -3 -16 3 -27 9 -16 7 -18 -13 -15
-13 2 -17 2 -10 0 16 -6 15 -20 -2 -30 -8 -4 -14 -15 -14 -23 3 -48 2 -49 -77
-45 -73 4 -74 3 -62 -17 9 -16 9 -22 -1 -25 -6 -3 -10 -9 -6 -14 3 -5 -3 -12
-13 -16 -16 -6 -15 -8 6 -13 l23 -5 -26 -15 c-22 -11 -31 -12 -46 -2 -23 14
-50 16 -50 3 0 -5 8 -12 18 -15 19 -6 -27 0 -73 9 -27 5 -26 3 10 -14 22 -11
62 -30 90 -41 40 -17 47 -23 35 -31 -11 -8 -8 -9 13 -4 24 5 26 4 16 -8 -11
-11 -25 -10 -86 10 -80 25 -147 32 -81 9 21 -8 50 -22 65 -32 16 -10 35 -17
43 -16 13 3 13 2 0 -8 -13 -9 -13 -11 0 -20 10 -6 -10 -10 -64 -12 l-79 -3 -2
-30 c-1 -16 3 -36 8 -43 8 -11 1 -12 -41 -6 -40 5 -54 3 -67 -10 -15 -15 -15
-16 6 -16 12 0 20 -2 17 -6 -13 -13 -359 61 -426 91 -47 21 -54 18 -10 -5 20
-11 92 -38 160 -61 67 -23 125 -44 128 -48 3 -4 13 -10 23 -14 10 -4 16 -11
13 -16 -3 -5 6 -12 20 -15 15 -4 24 -9 21 -12 -3 -3 -21 2 -41 10 -48 20 -48
0 1 -36 31 -24 33 -28 15 -28 -25 0 -28 -10 -10 -28 9 -9 5 -12 -18 -12 -17 0
-34 -3 -38 -7 -4 -5 -20 -8 -34 -9 -15 0 -36 -4 -46 -9 -14 -6 -17 -5 -11 4 6
10 2 11 -16 5 -25 -9 -101 -9 -157 1 -33 6 -33 6 -14 -13 11 -11 34 -28 53
-38 18 -11 47 -31 64 -46 16 -16 36 -28 43 -28 19 0 14 -17 -8 -23 -19 -5 -59
2 -107 17 -14 5 -23 3 -23 -3 0 -6 6 -11 14 -11 8 0 17 -4 21 -9 3 -6 -15 -3
-41 6 -33 11 -42 18 -33 24 10 7 9 9 -6 7 -39 -3 -66 2 -60 11 3 6 -15 13 -40
16 -25 4 -43 11 -40 15 8 12 -41 30 -53 18 -7 -7 -16 -4 -30 10 -28 28 -62 38
-62 17 0 -9 12 -18 30 -22 25 -5 53 -23 36 -23 -10 0 -129 47 -181 70 -72 34
-223 144 -218 159 1 3 -6 14 -14 24 -22 24 -1 21 31 -4 14 -11 23 -25 20 -31
-4 -7 -2 -8 4 -4 14 8 72 -20 72 -35 0 -6 5 -7 10 -4 6 3 10 1 10 -4 0 -17
-18 -13 -29 7 -8 14 -12 15 -23 3 -9 -10 -10 -12 0 -7 6 4 12 3 12 -3 0 -6 18
-15 40 -21 22 -6 38 -15 35 -20 -4 -6 1 -7 11 -3 11 4 15 3 10 -5 -9 -14 12
-26 51 -29 31 -2 30 0 -30 41 -117 79 -237 166 -237 171 0 9 42 -6 56 -19 8
-9 21 -16 27 -16 7 0 6 4 -3 10 -12 7 -10 11 10 18 14 5 29 7 34 4 5 -3 7 2 3
11 -4 12 -2 14 10 10 9 -4 21 1 29 12 11 14 17 16 25 8 6 -6 17 -9 24 -7 7 3
16 1 20 -5 8 -14 25 -14 25 -1 0 6 -8 14 -17 17 -10 4 -20 9 -23 12 -3 3 -26
16 -51 29 -25 13 -46 29 -46 37 0 10 4 11 18 2 10 -6 15 -15 13 -19 -3 -4 -1
-8 5 -8 5 0 11 3 14 8 2 4 2 2 1 -5 -2 -6 3 -14 10 -16 9 -4 12 2 11 17 -2 17
2 22 19 22 15 -1 21 5 19 18 -1 13 2 15 10 7 6 -6 19 -11 30 -11 10 0 15 -4
12 -10 -4 -6 1 -7 11 -3 13 5 15 3 9 -7 -5 -8 -4 -11 2 -7 5 3 36 -1 67 -9 32
-8 60 -13 62 -11 3 2 -28 16 -68 31 -97 35 -157 71 -134 79 10 4 15 3 11 -3
-5 -9 7 -14 27 -11 4 0 26 -8 50 -19 53 -24 75 -26 56 -6 -7 8 -16 12 -19 10
-3 -1 -17 4 -32 12 -85 45 -84 42 -15 39 35 -1 76 -8 92 -14 16 -6 31 -10 33
-8 6 6 -116 68 -302 152 -152 69 -221 105 -203 105 3 0 23 -8 44 -17 22 -9 42
-16 47 -15 4 1 7 -3 7 -9 0 -6 6 -9 12 -7 7 3 19 -2 27 -9 7 -8 18 -12 25 -10
6 2 17 -3 25 -10 7 -8 20 -12 28 -9 18 7 56 -18 45 -29 -4 -4 1 -5 11 -2 10 4
36 -2 60 -14 66 -33 250 -109 254 -106 1 2 -16 13 -40 25 -115 60 -129 70
-109 76 10 4 34 0 53 -8 45 -18 131 -31 107 -16 -10 6 -18 14 -18 18 0 4 8 8
18 9 35 2 78 9 88 16 6 3 42 7 82 9 53 2 68 6 59 14 -7 7 -73 37 -147 69 -220
93 -302 134 -294 146 4 8 9 7 15 -2 5 -8 9 -9 9 -4 0 6 5 2 11 -7 5 -10 15
-18 20 -18 6 0 7 5 4 10 -4 6 10 3 29 -7 20 -9 36 -21 36 -25 0 -5 4 -6 10 -3
12 7 70 -22 70 -36 0 -6 4 -8 10 -4 5 3 17 2 27 -3 52 -26 115 -52 128 -52 8
0 15 -5 15 -11 0 -5 4 -8 9 -5 5 4 11 1 13 -5 2 -6 13 -10 23 -7 13 2 -30 28
-124 74 -124 61 -138 71 -105 69 23 -1 38 -6 37 -13 -4 -18 32 -23 62 -8 25
13 31 12 77 -15 28 -17 53 -27 56 -24 6 5 -4 13 -72 61 -19 13 -30 30 -30 47
-2 32 9 35 24 7 6 -11 15 -18 21 -14 5 3 26 -4 46 -16 19 -11 37 -19 40 -16 2
2 -14 14 -36 27 -23 12 -41 26 -41 31 0 4 -5 8 -11 8 -11 0 -45 30 -42 38 5
15 30 19 43 8 28 -23 70 -47 70 -39 0 5 -15 18 -33 31 l-32 23 30 -6 c24 -5
27 -4 15 5 -12 9 -10 10 10 4 14 -4 32 -7 40 -6 8 1 37 5 64 8 35 5 45 9 35
16 -10 7 -9 8 6 3 11 -4 34 -11 50 -15z m-373 -40 c6 0 5 7 -2 15 -21 26 -5
16 21 -12 13 -14 18 -23 10 -18 -10 6 -12 4 -7 -4 6 -9 11 -9 22 0 9 7 14 8
13 3 -1 -5 0 -11 1 -14 6 -17 7 -40 2 -40 -15 1 -102 87 -101 100 0 10 5 8 16
-7 8 -13 20 -23 25 -23z m1619 -17 c13 -16 12 -17 -3 -4 -17 13 -22 21 -14 21
2 0 10 -8 17 -17z m-1976 -11 c-3 -3 -11 0 -18 7 -9 10 -8 11 6 5 10 -3 15 -9
12 -12z m31 -1 c-7 -11 22 -23 36 -14 7 3 8 1 4 -5 -4 -7 -2 -12 5 -12 7 0 10
-3 7 -6 -10 -9 -69 26 -63 36 4 6 8 10 11 10 3 0 3 -4 0 -9z m-3872 -78 c-43
-141 -115 -503 -113 -571 1 -33 3 -29 16 26 8 35 17 62 19 60 2 -2 -2 -35 -8
-73 -6 -39 -8 -122 -6 -185 l5 -115 -25 75 c-34 107 -36 329 -3 475 31 138
108 355 127 355 2 0 -4 -21 -12 -47z m4080 26 c-2 -4 2 -10 8 -12 8 -4 9 -6 2
-6 -6 -1 -17 5 -23 12 -8 10 -7 14 4 14 8 0 12 -4 9 -8z m46 7 c0 -3 -4 -8
-10 -11 -5 -3 -10 -1 -10 4 0 6 5 11 10 11 6 0 10 -2 10 -4z m-675 -74 c-3 -3
-11 0 -18 7 -9 10 -8 11 6 5 10 -3 15 -9 12 -12z m89 -31 c4 -5 -3 -7 -14 -4
-23 6 -26 13 -6 13 8 0 17 -4 20 -9z m1729 -15 c4 -10 1 -13 -8 -9 -8 3 -12 9
-9 14 7 12 11 11 17 -5z m-5272 -163 c-9 -16 -10 -16 -11 -1 0 9 3 25 7 35 7
16 8 17 11 1 2 -10 -1 -25 -7 -35z m3525 19 c-4 -3 -14 2 -24 12 -16 18 -16
18 6 6 13 -6 21 -14 18 -18z m104 -28 c0 -8 -19 -13 -24 -6 -3 5 1 9 9 9 8 0
15 -2 15 -3z m32 -15 c2 -5 11 -11 20 -13 22 -3 32 -12 21 -19 -5 -3 -22 5
-39 18 -16 13 -24 24 -17 25 6 0 13 -5 15 -11z m193 -129 c3 -5 1 -10 -4 -10
-6 0 -11 5 -11 10 0 6 2 10 4 10 3 0 8 -4 11 -10z m-441 -29 c10 -11 13 -21 7
-25 -12 -8 -43 22 -36 35 8 12 9 12 29 -10z m36 -41 c0 -5 36 -39 80 -76 44
-37 77 -71 74 -75 -8 -14 -18 -11 -44 14 -13 12 -45 39 -70 60 -25 20 -46 42
-46 47 -1 6 -2 16 -3 23 -1 8 -4 7 -11 -3 -5 -8 -10 -10 -10 -4 0 6 3 14 7 17
9 10 23 8 23 -3z m-456 -78 c45 -43 107 -102 138 -132 32 -29 55 -56 53 -60
-3 -4 3 -7 13 -6 9 0 16 -5 14 -12 -1 -8 2 -11 7 -8 10 6 61 -28 179 -121 37
-29 71 -53 77 -53 12 0 -26 32 -109 92 -114 83 -240 203 -230 220 5 7 2 9 -8
5 -10 -3 -23 3 -34 16 -10 12 -12 16 -4 10 22 -20 35 -15 16 6 -11 12 -25 17
-34 14 -12 -5 -14 -2 -9 11 4 11 3 15 -4 11 -11 -8 -40 25 -33 37 3 5 -1 8 -9
8 -7 0 -14 7 -14 16 0 9 54 -38 121 -105 133 -134 153 -150 179 -151 9 0 17
-3 17 -7 0 -5 11 -13 25 -20 19 -8 25 -8 25 0 1 7 5 6 13 -3 7 -8 21 -22 32
-30 20 -15 20 -14 1 8 -17 20 -15 27 6 23 4 0 5 6 2 14 -4 8 -10 15 -16 15 -5
0 -6 -4 -3 -10 3 -5 1 -10 -5 -10 -7 0 -9 8 -5 20 4 11 2 20 -4 20 -6 0 -20 9
-31 20 -11 11 -15 20 -9 20 19 0 100 -83 94 -97 -3 -8 0 -11 6 -7 6 3 20 -3
32 -13 26 -23 73 -53 83 -53 4 0 -9 12 -28 28 -59 47 -100 91 -93 102 4 6 1 9
-7 8 -7 -2 -12 3 -10 10 1 8 -1 11 -6 8 -5 -3 -31 18 -58 46 -44 46 -45 48
-12 24 22 -17 42 -25 50 -20 7 4 10 4 6 0 -16 -18 192 -185 357 -286 37 -22
72 -45 78 -51 7 -6 27 -19 45 -30 21 -12 30 -24 26 -32 -4 -6 -4 -9 1 -5 11
10 85 -32 85 -49 0 -7 -3 -13 -7 -13 -8 0 -73 40 -152 93 -22 15 -44 27 -47
27 -4 0 34 -40 85 -89 50 -49 91 -94 91 -101 0 -6 5 -8 10 -5 6 3 10 2 10 -3
0 -5 10 -14 23 -21 l22 -11 -24 6 c-18 5 -22 3 -16 -7 5 -8 -1 -6 -12 4 -11 9
-22 15 -24 13 -3 -3 -22 6 -44 19 -22 13 -69 40 -105 60 -72 40 -115 66 -175
105 -53 34 -90 48 -55 20 14 -11 29 -20 33 -20 5 0 5 -5 1 -12 -4 -7 -3 -8 5
-4 14 9 43 -12 36 -24 -3 -5 0 -12 6 -16 8 -4 9 -3 5 4 -4 7 -2 12 3 12 6 0
11 -8 11 -17 0 -12 3 -14 8 -6 10 15 34 1 30 -18 -2 -9 5 -13 20 -12 16 2 21
-1 16 -10 -4 -6 -4 -9 1 -5 11 10 85 -33 85 -49 0 -8 6 -13 13 -12 19 3 67
-19 67 -31 0 -6 4 -9 9 -5 5 3 16 -4 25 -16 9 -13 19 -18 27 -14 8 5 10 4 5
-3 -4 -7 9 -19 31 -31 21 -11 34 -20 29 -21 -11 0 -79 38 -281 159 -88 53
-168 100 -178 106 -36 20 -193 130 -234 163 -24 19 -41 38 -38 42 3 5 0 12 -6
16 -8 4 -9 3 -5 -4 12 -19 -3 -14 -40 14 -18 14 -31 31 -27 37 3 5 1 7 -5 3
-13 -8 -119 81 -220 184 -136 138 -150 179 -18 52z m555 51 c16 -16 41 -36 56
-46 14 -11 24 -22 21 -25 -3 -3 1 -14 11 -24 23 -25 9 -23 -24 5 -78 66 -93
80 -88 85 2 3 0 11 -6 19 -20 23 -1 14 30 -14z m62 -20 c13 -16 12 -17 -3 -4
-10 7 -18 15 -18 17 0 8 8 3 21 -13z m-161 -55 c0 -6 -6 -5 -15 2 -8 7 -15 14
-15 16 0 2 7 1 15 -2 8 -4 15 -11 15 -16z m34 -23 c-4 -8 -11 -12 -16 -9 -6 4
-5 10 3 15 19 12 19 11 13 -6z m7383 -32 c-3 -10 -5 -2 -5 17 0 19 2 27 5 18
2 -10 2 -26 0 -35z m-7657 6 c19 -17 34 -34 33 -37 -2 -4 1 -7 6 -7 5 0 13 -4
18 -9 5 -6 2 -6 -6 -1 -11 6 -13 4 -7 -11 4 -12 4 -15 -2 -9 -77 86 -93 105
-86 105 5 0 25 -14 44 -31z m257 -42 c5 2 15 -8 21 -22 7 -15 15 -24 20 -21
13 8 44 -22 36 -35 -4 -8 -3 -10 5 -5 6 4 25 -2 41 -14 38 -27 40 -9 3 19 -18
13 -21 19 -9 14 15 -5 17 -3 11 7 -6 10 -4 12 10 6 15 -5 16 -4 5 9 -10 12
-11 18 -1 28 10 9 11 8 5 -7 -5 -14 -4 -17 5 -12 6 4 11 4 10 -1 -3 -20 2 -34
11 -28 6 4 7 11 4 17 -4 5 6 2 22 -8 16 -10 45 -29 64 -41 19 -13 41 -27 48
-33 6 -6 12 -8 12 -5 0 3 10 0 23 -6 20 -11 21 -11 8 4 -7 10 -19 17 -27 17
-7 0 -19 6 -26 13 -7 6 -31 24 -53 39 -69 48 -119 95 -107 102 15 9 73 -34 65
-48 -3 -6 -3 -8 2 -4 7 6 61 -24 75 -43 3 -3 15 -11 28 -18 12 -7 20 -17 16
-23 -5 -7 -2 -8 5 -4 7 5 19 0 27 -10 9 -11 13 -13 9 -7 -4 9 -1 11 10 7 9 -4
14 -9 11 -12 -3 -3 19 -17 49 -32 30 -15 52 -30 48 -34 -3 -3 1 -7 10 -7 33
-3 38 -4 45 -14 4 -5 14 -11 22 -13 33 -8 159 -86 153 -96 -4 -6 -8 -6 -11 2
-2 7 -10 12 -18 12 -8 0 -14 5 -14 12 0 6 -3 9 -6 5 -3 -3 -18 -1 -33 4 -35
14 -19 -3 45 -44 27 -18 50 -40 52 -49 3 -14 -1 -15 -35 -2 -21 7 -51 13 -66
14 -16 0 -26 3 -24 8 3 4 -8 8 -24 9 -33 2 -39 -12 -10 -22 11 -3 22 -12 25
-20 3 -9 0 -12 -10 -8 -7 3 -14 9 -14 14 0 5 -11 4 -25 -3 -20 -9 -29 -7 -51
8 -29 21 -92 58 -164 96 -123 67 -319 229 -395 329 -11 14 -4 9 16 -11 20 -20
40 -35 46 -33z m88 33 c3 -6 -1 -7 -9 -4 -18 7 -21 14 -7 14 6 0 13 -4 16 -10z
m7326 -139 c-7 -21 -9 -10 -9 49 0 75 0 75 10 26 5 -30 5 -58 -1 -75z m-7560
92 c13 -16 12 -17 -3 -4 -17 13 -22 21 -14 21 2 0 10 -8 17 -17z m554 -53 c3
-6 -1 -7 -9 -4 -18 7 -21 14 -7 14 6 0 13 -4 16 -10z m-4326 -53 c0 -21 -1
-21 -9 -2 -12 28 -12 37 0 30 6 -3 10 -16 9 -28z m11451 -130 c-34 -157 -63
-230 -160 -397 -24 -41 -49 -90 -57 -108 -8 -19 -17 -31 -20 -28 -4 3 -2 16 4
29 70 147 109 232 135 296 17 42 36 90 43 106 7 17 23 72 36 122 13 51 27 89
32 84 4 -4 -2 -51 -13 -104z m-11440 38 c5 3 12 0 16 -6 4 -7 3 -10 -2 -6 -5
3 -9 -20 -9 -53 0 -32 3 -53 7 -47 4 7 8 -3 9 -23 2 -36 5 -68 9 -85 1 -5 1
-21 0 -35 -2 -24 -2 -24 -11 5 -16 51 -39 222 -37 272 1 44 2 45 5 10 2 -20 8
-35 13 -32z m4565 15 c3 -6 -1 -7 -9 -4 -18 7 -21 14 -7 14 6 0 13 -4 16 -10z
m-4500 -162 c5 -34 4 -48 -4 -48 -12 0 -12 0 -17 55 -9 112 -4 190 6 100 4
-33 11 -81 15 -107z m2814 -53 c16 -8 31 -12 33 -10 3 3 36 -9 74 -26 38 -18
83 -35 99 -40 28 -8 29 -7 11 6 -11 8 -24 15 -30 15 -5 0 -7 2 -5 4 3 3 36 -6
74 -20 39 -14 84 -29 100 -35 17 -5 39 -13 50 -18 45 -22 100 -44 108 -43 4 1
7 -2 7 -8 0 -5 5 -10 12 -10 29 0 -12 26 -147 95 -49 25 -93 52 -98 60 -4 8
-6 15 -4 15 12 0 176 -76 229 -107 34 -20 108 -61 163 -92 161 -92 250 -144
255 -151 3 -4 14 -12 25 -18 11 -6 16 -11 10 -11 -5 0 -28 11 -50 24 -22 13
-67 37 -100 54 -33 17 -80 42 -105 56 -49 27 -76 33 -46 10 10 -7 15 -18 12
-24 -4 -5 2 -14 11 -20 10 -6 15 -11 11 -11 -7 0 -156 63 -202 86 -16 8 -31
12 -34 9 -8 -8 52 -60 67 -57 7 2 10 -1 7 -6 -3 -6 1 -13 10 -16 8 -3 13 -10
9 -16 -7 -11 -55 8 -55 22 0 4 -7 8 -15 8 -8 0 -15 5 -15 11 0 5 -5 7 -12 3
-8 -5 -9 -2 -5 9 4 11 1 17 -9 17 -8 0 -13 4 -9 9 7 12 -114 77 -160 85 -22 5
-33 11 -29 18 4 7 3 8 -4 4 -11 -7 -152 57 -247 111 -44 25 -41 32 4 8z
m-2794 -95 c-4 -12 -9 -19 -12 -17 -3 3 -2 15 2 27 4 12 9 19 12 17 3 -3 2
-15 -2 -27z m-48 -12 c-3 -8 -6 -5 -6 6 -1 11 2 17 5 13 3 -3 4 -12 1 -19z
m10 -40 c-3 -8 -6 -5 -6 6 -1 11 2 17 5 13 3 -3 4 -12 1 -19z m23 -53 c0 -5
-5 -3 -10 5 -5 8 -10 20 -10 25 0 6 5 3 10 -5 5 -8 10 -19 10 -25z m2966 7
c-2 -4 22 -9 55 -10 91 -4 303 -100 285 -130 -5 -8 -13 -8 -31 0 -14 6 -27 9
-30 6 -10 -10 6 -34 28 -44 12 -6 16 -9 10 -7 -25 5 -12 -7 35 -32 26 -15 38
-23 27 -20 -50 17 -156 59 -213 86 -35 16 -65 29 -68 29 -16 0 -136 64 -126
68 7 2 10 8 7 13 -4 5 1 6 9 3 9 -3 14 -11 13 -16 -1 -6 5 -13 13 -15 13 -4
13 -3 0 6 -13 10 -13 11 0 11 10 0 6 8 -12 24 -15 13 -24 27 -21 30 9 9 25 7
19 -2z m-2925 -92 c4 0 10 8 13 18 4 14 5 14 4 -3 0 -11 1 -31 2 -45 1 -22 2
-23 9 -5 7 17 9 16 15 -9 10 -39 81 -209 117 -278 17 -32 28 -58 26 -58 -18 0
-140 224 -191 350 -26 64 -34 95 -14 53 6 -13 15 -23 19 -23z m3779 -130 c8
-5 11 -10 5 -10 -5 0 -17 5 -25 10 -8 5 -10 10 -5 10 6 0 17 -5 25 -10z
m-1195 -75 c50 -7 106 -19 125 -24 43 -13 43 -13 35 -1 -3 6 -2 10 4 10 5 0
12 -4 16 -10 3 -5 13 -6 22 -3 11 4 14 3 9 -5 -5 -8 -2 -10 8 -6 9 3 16 2 16
-4 0 -6 9 -8 20 -5 11 3 20 1 20 -5 0 -5 12 -12 28 -15 30 -7 59 -24 52 -30
-3 -2 -45 7 -95 20 -49 13 -100 26 -113 30 -19 4 -21 2 -15 -13 6 -17 5 -17
-10 -5 -9 7 -14 17 -11 22 3 5 -1 7 -8 4 -7 -2 -58 9 -113 24 -115 34 -114 36
10 16z m142 -11 c-3 -3 -12 -4 -19 -1 -8 3 -5 6 6 6 11 1 17 -2 13 -5z m-127
-64 c13 -9 13 -10 0 -10 -8 0 -22 5 -30 10 -13 9 -13 10 0 10 8 0 22 -5 30
-10z m104 -26 c15 -6 17 -4 11 6 -6 9 -4 11 4 5 9 -5 9 -11 3 -17 -7 -7 -25
-5 -54 6 -33 12 -36 15 -13 12 17 -3 39 -8 49 -12z m211 -52 c-1 -2 -30 2 -64
9 -33 7 -56 16 -50 19 10 7 121 -21 114 -28z m148 -29 c-7 -2 -19 -2 -25 0 -7
3 -2 5 12 5 14 0 19 -2 13 -5z m-523 -97 c0 -6 5 -5 11 1 9 9 16 8 27 -3 8 -9
24 -13 37 -10 24 6 95 -11 95 -22 0 -4 15 -9 33 -10 17 -1 41 -6 52 -12 11 -5
43 -19 70 -30 43 -18 45 -20 15 -14 -19 3 -55 12 -80 19 -25 8 -88 23 -140 35
-91 21 -190 49 -190 54 0 1 16 2 35 2 19 -1 35 -5 35 -10z m407 -112 c-3 -3
-12 -4 -19 -1 -8 3 -5 6 6 6 11 1 17 -2 13 -5z m8560 -479 c9 -16 19 -32 23
-35 3 -3 16 -32 29 -65 12 -33 31 -78 40 -100 10 -22 21 -56 25 -75 4 -21 -9
0 -34 55 -66 143 -112 237 -137 277 -13 21 -23 41 -23 44 0 11 61 -68 77 -101z
m-11319 -136 c66 -79 257 -270 332 -332 l45 -38 -40 25 c-56 36 -187 156 -273
251 -80 90 -162 195 -162 210 0 6 8 -1 18 -16 9 -14 45 -59 80 -100z m11589
-201 c-3 -7 -5 -2 -5 12 0 14 2 19 5 13 2 -7 2 -19 0 -25z m20 -70 c-3 -8 -6
-5 -6 6 -1 11 2 17 5 13 3 -3 4 -12 1 -19z m-5496 -35 c91 -45 109 -67 130
-165 41 -184 10 -426 -95 -758 -82 -259 -96 -308 -102 -376 -8 -87 8 -126 75
-185 42 -38 131 -84 476 -249 44 -21 155 -74 247 -118 91 -44 199 -101 239
-127 69 -44 329 -288 329 -307 0 -5 -19 -7 -42 -4 -342 44 -541 63 -1023 96
-520 36 -578 41 -587 46 -4 3 -8 11 -8 19 0 15 -102 91 -165 122 -22 11 -65
28 -95 38 -30 10 -66 25 -78 33 -20 13 -25 13 -32 2 -5 -8 -6 -18 -4 -22 3 -4
0 -8 -5 -8 -6 0 -11 5 -11 10 0 6 -7 10 -16 8 -10 -2 -19 2 -21 9 -3 7 3 9 16
6 24 -6 29 15 6 23 -9 4 -23 -4 -36 -20 l-21 -27 -24 22 c-22 21 -54 21 -54
-1 0 -5 -13 -10 -30 -10 -21 0 -30 5 -30 17 0 18 -15 8 -15 -10 -1 -7 -7 -10
-15 -8 -8 3 -32 4 -53 2 -20 -1 -46 3 -57 9 -14 7 -20 7 -20 0 0 -5 -12 -10
-27 -10 -25 0 -26 0 -8 20 16 18 16 20 2 20 -9 0 -20 -6 -24 -13 -9 -16 -100
-31 -108 -17 -3 5 3 13 12 19 17 10 17 10 0 11 -10 0 -20 -7 -24 -16 -6 -15
-26 -16 -205 -10 -219 8 -262 16 -252 49 21 67 265 435 389 587 17 20 41 52
55 70 42 56 183 232 209 260 13 14 35 41 50 60 14 19 45 60 68 90 24 30 46 60
51 65 36 49 91 125 105 145 9 14 35 50 56 80 22 30 48 69 57 85 9 17 20 32 23
35 3 3 34 48 69 100 67 103 131 182 132 164 0 -7 -17 -35 -37 -63 -21 -28 -56
-81 -78 -117 -42 -67 -125 -197 -161 -249 -11 -16 -38 -57 -59 -90 -21 -33
-47 -70 -58 -81 -10 -12 -14 -25 -9 -28 5 -3 29 22 53 56 67 94 80 118 73 130
-4 7 -2 8 4 4 7 -4 22 11 38 36 82 131 201 306 253 371 69 86 124 134 206 177
54 29 67 31 130 28 55 -2 86 -10 136 -35z m5506 -55 c-2 -13 -4 -3 -4 22 0 25
2 35 4 23 2 -13 2 -33 0 -45z m-10877 -138 c13 -9 13 -10 0 -9 -8 0 -24 4 -35
9 l-20 9 20 0 c11 0 27 -4 35 -9z m97 -26 c-3 -3 -12 -4 -19 -1 -8 3 -5 6 6 6
11 1 17 -2 13 -5z m9689 -714 c148 -5 251 -13 267 -21 24 -11 27 -17 27 -65 0
-29 -5 -56 -11 -60 -6 -4 -460 -6 -1008 -5 -948 2 -1552 -6 -2161 -29 -275
-10 -387 -17 -810 -44 -465 -31 -416 -31 -445 -2 -49 49 -22 136 43 136 15 1
72 5 127 10 164 16 527 38 720 45 99 3 286 11 415 17 544 25 2353 37 2836 18z
m-5269 -1026 c-3 -3 -12 -4 -19 -1 -8 3 -5 6 6 6 11 1 17 -2 13 -5z m158 -4
c3 -5 -1 -10 -10 -10 -9 0 -13 5 -10 10 3 6 8 10 10 10 2 0 7 -4 10 -10z
m-3071 -194 c22 -27 71 -80 109 -119 37 -39 67 -74 67 -78 0 -16 -150 138
-200 206 -89 117 -81 115 24 -9z m669 -17 c4 -28 16 -71 28 -95 25 -54 90
-121 133 -139 l31 -13 -30 -12 c-16 -6 -70 -25 -120 -42 -49 -17 -108 -38
-130 -48 -22 -10 -57 -25 -78 -34 -22 -9 -71 -47 -110 -85 -77 -74 -105 -90
-181 -111 -45 -12 -50 -12 -62 5 -16 22 -17 34 -5 54 8 12 12 13 26 1 38 -31
128 28 127 84 0 27 -25 102 -59 175 -14 31 -43 101 -65 156 -22 55 -44 105
-50 112 -5 7 -7 20 -4 30 5 16 14 18 68 13 41 -3 74 -12 93 -26 45 -31 64 -35
93 -20 61 33 101 45 167 50 39 2 72 5 75 6 3 1 8 2 13 1 4 0 7 5 7 12 1 31 28
-28 33 -74z m-553 50 c0 -6 -4 -7 -10 -4 -5 3 -10 11 -10 16 0 6 5 7 10 4 6
-3 10 -11 10 -16z m3340 -311 c0 -224 -4 -258 -26 -258 -12 0 -14 42 -14 235
0 228 1 235 20 235 19 0 20 -7 20 -212z m236 176 c-3 -9 -6 -87 -6 -175 0 -97
-4 -159 -10 -159 -17 0 -24 51 -24 186 -1 97 3 136 13 148 17 21 35 21 27 0z
m-1552 -294 c208 -30 363 -194 430 -452 51 -199 61 -332 61 -848 0 -600 -13
-761 -73 -867 -47 -85 -107 -113 -280 -133 -140 -16 -277 -8 -567 31 -340 47
-573 192 -710 444 -105 192 -177 387 -296 800 -131 454 -144 604 -64 720 43
62 86 97 169 135 125 58 523 142 796 169 122 12 453 12 534 1z m3086 -230 c0
-5 -2 -10 -4 -10 -3 0 -8 5 -11 10 -3 6 -1 10 4 10 6 0 11 -4 11 -10z m2445
-15 c103 -27 198 -82 268 -154 156 -161 220 -309 248 -563 9 -93 9 -136 0
-210 -17 -122 -47 -266 -76 -353 -12 -38 -39 -124 -60 -190 -84 -276 -190
-494 -360 -740 -26 -38 -70 -112 -97 -163 -28 -51 -71 -116 -97 -145 -26 -29
-51 -61 -54 -71 -4 -10 -10 -16 -14 -12 -4 3 8 27 25 51 18 25 32 48 32 50 0
3 15 26 34 52 34 48 77 127 59 108 -6 -5 -43 -55 -83 -109 -123 -167 -245
-278 -380 -346 -25 -12 -52 -28 -60 -35 -8 -7 -52 -23 -98 -35 -63 -17 -95
-21 -137 -15 -30 3 -55 10 -55 14 0 5 -22 11 -48 13 -72 7 -137 44 -229 131
-45 42 -91 77 -101 77 -22 0 -46 23 -35 33 3 4 14 7 23 7 13 0 16 6 13 24 -4
20 -13 26 -44 31 -21 4 -39 8 -39 10 0 2 11 21 25 41 29 43 40 90 27 124 -8
22 -14 24 -52 21 l-43 -3 30 39 c45 58 46 60 32 116 -7 29 -14 54 -16 56 -1 2
-16 -2 -33 -9 -17 -7 -33 -10 -36 -8 -5 6 56 74 65 71 3 -1 4 18 3 42 -4 43
-4 44 -35 39 l-32 -5 28 23 c36 31 34 58 -8 88 -41 30 -43 47 -11 75 27 22 40
54 28 70 -4 6 -26 23 -49 38 -41 26 -59 53 -28 41 20 -8 65 22 65 42 0 9 -9
28 -21 42 l-21 27 24 5 c34 8 35 43 2 69 -24 19 -24 26 0 22 4 -1 15 4 23 10
17 15 1 29 -34 29 -34 0 -28 16 10 27 24 7 31 14 29 29 -2 10 -3 36 -3 56 1
29 -5 44 -29 66 -33 32 -37 42 -16 42 22 0 66 63 66 92 0 14 -7 28 -15 32 -21
8 -19 32 6 49 21 15 27 40 14 70 -4 10 -3 17 4 17 19 0 12 18 -9 25 -29 9 -25
22 10 29 17 3 30 10 30 16 0 15 -26 41 -34 33 -3 -4 -6 -1 -6 6 0 6 7 11 16 9
10 -2 19 3 21 10 3 6 0 12 -6 12 -6 0 -11 7 -11 16 0 11 5 14 18 9 50 -21 68
1 22 27 -30 17 -41 40 -17 37 50 -6 78 13 37 26 -30 9 -24 22 15 35 36 12 44
25 23 33 -8 3 -6 6 5 6 9 1 17 6 17 12 0 6 -7 9 -15 5 -18 -6 -19 -2 -4 25 6
13 16 18 26 15 24 -10 53 23 53 59 l0 33 113 4 c149 5 193 27 347 174 112 106
148 136 230 191 110 74 154 93 265 117 48 10 166 5 220 -9z m-890 -60 l30 -26
-43 22 c-23 13 -50 31 -59 41 -15 17 -15 17 13 3 16 -8 43 -26 59 -40z m-1460
-145 c14 -27 21 -50 16 -50 -5 0 -21 23 -35 50 -14 28 -22 50 -16 50 5 0 21
-22 35 -50z m39 -76 c3 -8 2 -12 -4 -9 -6 3 -10 10 -10 16 0 14 7 11 14 -7z
m-1584 -380 c0 -46 -140 -196 -252 -270 -65 -43 -218 -121 -339 -172 -137 -60
-173 -79 -201 -107 l-30 -30 7 40 c16 93 15 93 245 205 114 56 250 142 243
154 -3 5 -1 6 5 2 9 -5 109 56 159 98 50 43 130 95 146 96 9 0 17 -7 17 -16z
m1667 -16 c-3 -8 -6 -5 -6 6 -1 11 2 17 5 13 3 -3 4 -12 1 -19z m-27 2 c0 -5
-2 -10 -4 -10 -3 0 -8 5 -11 10 -3 6 -1 10 4 10 6 0 11 -4 11 -10z m870 -290
c0 -5 -4 -10 -10 -10 -5 0 -10 5 -10 10 0 6 5 10 10 10 6 0 10 -4 10 -10z
m-805 -60 c3 -5 1 -10 -4 -10 -6 0 -11 5 -11 10 0 6 2 10 4 10 3 0 8 -4 11
-10z m-24 -66 c14 -37 6 -39 -15 -4 -10 17 -13 30 -6 30 6 0 15 -12 21 -26z
m-21 -250 c0 -17 -22 -14 -28 4 -2 7 3 12 12 12 9 0 16 -7 16 -16z m16 -61
c-4 -4 -11 -1 -16 7 -16 25 -11 35 7 17 9 -9 13 -20 9 -24z m-52 -39 c4 -10 1
-14 -6 -12 -15 5 -23 28 -10 28 5 0 13 -7 16 -16z m36 -61 c0 -7 -4 -13 -10
-13 -5 0 -10 12 -10 28 0 21 2 24 10 12 5 -8 10 -21 10 -27z m-40 -191 c0 -4
-9 -15 -20 -25 -22 -19 -25 -15 -10 14 11 19 30 26 30 11z m-7434 -118 c39
-104 44 -124 33 -124 -15 0 -59 106 -66 159 -8 60 1 51 33 -35z m7400 -11 c-8
-9 -36 17 -36 33 0 10 7 7 21 -7 11 -11 18 -23 15 -26z m-4140 -199 c18 -14
18 -14 -6 -3 -31 14 -36 19 -24 19 6 0 19 -7 30 -16z m70 -24 c5 -5 45 -19 89
-30 93 -23 531 -54 768 -55 135 0 145 -1 115 -14 -55 -22 -145 -31 -303 -29
-126 1 -138 3 -75 8 l75 7 -92 -1 c-50 -1 -87 2 -81 5 5 3 -48 9 -119 12 -131
5 -226 23 -322 58 -61 22 -105 49 -80 49 8 0 19 -4 25 -10z m5010 -146 c-4 -9
-9 -15 -11 -12 -3 3 -3 13 1 22 4 9 9 15 11 12 3 -3 3 -13 -1 -22z m-3586 -53
c0 -5 -7 -12 -16 -15 -14 -5 -15 -4 -4 9 14 17 20 19 20 6z m-45 -31 c-3 -5
-12 -10 -18 -10 -7 0 -6 4 3 10 19 12 23 12 15 0z m2275 -412 c0 -16 -3 -19
-11 -11 -6 6 -8 16 -5 22 11 17 16 13 16 -11z m1483 -10 c24 -27 30 -44 34
-90 2 -36 0 -58 -7 -58 -5 0 -10 13 -10 29 0 33 -17 51 -26 27 -3 -8 -12 -17
-20 -20 -13 -5 -13 -2 1 16 21 31 19 62 -7 84 -13 10 -17 12 -10 4 14 -16 16
-30 3 -30 -15 0 -31 58 -18 64 23 9 30 6 60 -26z m-5443 6 c0 -8 -4 -12 -10
-9 -5 3 -10 10 -10 16 0 5 5 9 10 9 6 0 10 -7 10 -16z m3950 -43 c0 -14 -18
-23 -31 -15 -8 4 -7 9 2 15 18 11 29 11 29 0z m-3873 -98 c-8 -7 -47 58 -47
77 0 8 12 -4 26 -28 14 -24 24 -46 21 -49z m5350 -40 c-21 -21 -29 -25 -39
-15 -9 9 -8 12 5 12 10 0 25 9 34 20 9 11 19 17 22 14 3 -2 -7 -17 -22 -31z
m77 -31 c4 -38 3 -51 -5 -47 -6 4 -17 -2 -25 -14 -16 -23 -34 -28 -34 -10 0 6
9 24 21 40 11 16 18 29 14 29 -3 0 -3 6 2 13 8 12 10 18 12 39 2 23 9 2 15
-50z m10 -97 c5 -17 1 -21 -18 -23 -23 -2 -24 0 -14 29 11 31 21 29 32 -6z
m36 -135 c10 -19 8 -20 -35 -20 -25 0 -45 3 -45 7 0 3 12 31 27 62 l28 55 7
-41 c4 -23 12 -51 18 -63z m-4895 29 c11 -17 0 -20 -21 -4 -17 13 -17 14 -2
15 9 0 20 -5 23 -11z m4937 -139 c3 -33 1 -35 -29 -38 -39 -4 -42 9 -12 57 23
39 37 32 41 -19z m51 -87 c30 -44 41 -82 28 -102 -13 -20 -80 6 -86 34 -10 48
-9 71 5 87 21 23 24 22 53 -19z m-2263 -53 c0 -5 -4 -10 -9 -10 -6 0 -13 5
-16 10 -3 6 1 10 9 10 9 0 16 -4 16 -10z m-3726 -72 c39 -34 86 -70 104 -81
42 -25 41 -30 -3 -11 -48 20 -81 17 -150 -12 -79 -33 -152 -54 -194 -54 -42 0
-264 58 -288 75 -14 11 -15 16 -4 44 15 34 48 49 78 33 10 -6 49 -36 88 -66
62 -50 105 -70 105 -48 0 4 15 16 33 27 46 27 128 106 138 132 5 13 11 23 15
23 3 0 38 -28 78 -62z m3713 -60 c-3 -8 -6 -5 -6 6 -1 11 2 17 5 13 3 -3 4
-12 1 -19z m-1773 -14 c51 -29 57 -45 7 -20 -16 9 -37 16 -46 16 -8 0 -15 7
-15 15 0 19 -1 19 54 -11z m1593 -170 c-3 -3 -12 -4 -19 -1 -8 3 -5 6 6 6 11
1 17 -2 13 -5z m-4869 -175 c-49 -89 -212 -236 -325 -293 -57 -29 -36 -9 30
28 77 43 207 163 267 245 24 33 46 61 48 61 1 0 -8 -19 -20 -41z m2212 -79 c8
-5 11 -10 5 -10 -5 0 -17 5 -25 10 -8 5 -10 10 -5 10 6 0 17 -5 25 -10z m-130
-70 c63 -10 142 -21 175 -25 99 -11 158 -44 258 -147 49 -51 105 -112 125
-136 l36 -44 -33 -111 c-17 -61 -43 -133 -56 -160 -14 -27 -25 -56 -24 -65 0
-13 3 -11 9 4 5 12 13 25 19 29 6 3 23 30 38 58 14 29 28 46 31 39 5 -17 -14
-58 -42 -90 -19 -22 -19 -24 -3 -52 18 -31 52 -198 43 -208 -12 -11 -19 10
-25 77 -7 71 -22 101 -50 100 -12 0 -10 -3 6 -11 20 -10 22 -20 27 -127 3 -64
5 -131 5 -149 1 -40 40 -121 41 -84 0 13 -7 37 -16 53 -15 29 -14 31 6 36 l21
6 -21 22 c-21 22 -21 65 0 65 8 0 25 -64 23 -88 0 -7 8 -34 18 -60 l20 -47 -4
37 c-4 55 13 34 78 -95 31 -62 61 -116 66 -122 15 -15 -3 30 -51 126 -42 83
-62 146 -74 229 -6 37 1 27 37 -60 50 -121 61 -143 95 -187 30 -40 39 -41 45
-5 l4 27 2 -30 c1 -16 5 -35 9 -40 12 -17 116 -91 157 -113 55 -28 90 -68 114
-130 28 -71 26 -76 -9 -20 -33 53 -59 75 -36 30 9 -17 16 -33 16 -37 0 -12
-28 -4 -33 10 -7 17 -85 75 -101 75 -7 0 -7 -3 -1 -8 6 -4 23 -25 40 -47 16
-22 33 -43 38 -46 5 -4 7 -11 4 -16 -4 -6 -2 -25 2 -44 5 -19 11 -53 14 -76 7
-58 -17 -58 -31 0 -6 24 -27 60 -47 82 -29 33 -35 36 -29 16 14 -53 32 -176
26 -181 -4 -3 -18 -27 -32 -55 -21 -42 -25 -46 -28 -27 -2 13 1 29 8 36 18 23
-13 239 -45 309 -15 32 -29 56 -32 53 -3 -2 2 -29 11 -59 9 -30 16 -68 16 -84
0 -15 7 -57 14 -93 8 -36 17 -78 20 -95 4 -18 -2 -11 -14 20 -12 27 -25 81
-29 120 -5 44 -20 96 -41 140 -36 78 -50 74 -27 -7 23 -81 30 -135 18 -142 -6
-4 -13 5 -17 21 -3 15 -17 44 -29 63 -55 83 -125 204 -125 216 0 8 -9 28 -21
46 l-21 33 6 -34 c3 -18 6 -39 6 -47 0 -7 6 -19 14 -26 8 -8 26 -39 41 -69 15
-30 31 -56 34 -59 16 -12 51 -79 51 -98 0 -11 -14 -50 -32 -87 l-31 -68 -19
54 c-11 30 -24 67 -30 82 l-11 29 -18 -47 c-10 -25 -22 -52 -28 -59 -6 -7 -17
-41 -25 -75 -8 -35 -17 -66 -21 -69 -3 -3 -3 43 1 104 8 126 -5 208 -42 266
-13 21 -27 38 -30 38 -4 0 -2 -6 3 -12 6 -7 13 -42 16 -78 5 -60 4 -63 -8 -34
-7 17 -16 51 -21 75 -9 53 -8 48 -23 79 -9 21 -10 11 -6 -55 3 -44 10 -98 15
-120 5 -22 9 -53 9 -70 0 -46 -13 -15 -45 105 -21 81 -27 126 -27 200 1 75 -1
89 -9 65 -17 -51 -12 -214 8 -265 9 -25 19 -76 20 -114 l3 -70 -36 40 c-59 65
-119 166 -133 222 -6 29 -20 62 -29 73 -15 19 -16 16 -13 -60 3 -59 1 -81 -8
-81 -8 0 -11 12 -8 35 2 19 0 35 -4 35 -9 0 -13 -9 -22 -52 -4 -16 -10 -28
-15 -28 -13 0 -33 123 -31 189 1 31 1 61 1 66 -1 10 -20 -20 -42 -65 -19 -39
-14 -157 9 -217 22 -59 12 -62 -17 -5 -30 59 -44 149 -37 232 6 74 47 217 72
254 11 16 12 10 8 -40 -3 -42 -2 -53 5 -39 5 11 10 34 10 52 1 19 12 44 27 62
l26 31 -24 19 c-12 11 -20 23 -16 27 4 4 15 1 23 -6 12 -10 19 -10 27 -2 16
16 -5 128 -30 162 -11 14 -30 46 -42 70 -28 55 -155 240 -202 294 -31 36 -41
41 -94 47 -32 4 -98 12 -146 18 -47 6 -144 13 -214 16 -70 3 -130 7 -132 10
-11 11 274 11 383 0 44 -4 78 -5 75 -2 -3 3 -52 10 -110 16 -114 12 -290 40
-302 47 -27 17 13 159 58 207 45 49 139 83 260 96 97 10 184 5 334 -19z m314
-4 c46 -22 90 -53 121 -86 28 -29 57 -59 66 -68 9 -10 29 -37 46 -62 17 -25
43 -57 58 -72 15 -16 23 -28 18 -28 -11 0 -58 50 -138 146 -57 68 -123 124
-204 171 -73 43 -56 42 33 -1z m1193 -8 c-3 -7 -5 -2 -5 12 0 14 2 19 5 13 2
-7 2 -19 0 -25z m-2497 -37 c42 -85 120 -192 132 -185 7 4 8 2 4 -4 -9 -15 54
-92 76 -92 20 0 35 -19 16 -21 -7 -1 -31 -4 -53 -6 -22 -2 -121 -4 -220 -4
-219 -1 -258 8 -263 60 -7 71 111 246 197 291 62 33 77 27 111 -39z m2610 29
c0 -5 -2 -10 -4 -10 -3 0 -8 5 -11 10 -3 6 -1 10 4 10 6 0 11 -4 11 -10z m151
-85 c1 -5 -5 -14 -14 -19 -12 -7 -21 -5 -37 9 -14 13 -17 21 -9 26 14 8 58 -3
60 -16z m-4710 -132 c13 -16 12 -17 -3 -4 -10 7 -18 15 -18 17 0 8 8 3 21 -13z
m169 -148 c43 -30 98 -64 124 -74 25 -11 46 -23 46 -26 0 -8 -108 42 -143 67
-63 44 -118 88 -112 88 4 0 42 -25 85 -55z m3431 38 c13 -16 12 -17 -3 -4 -10
7 -18 15 -18 17 0 8 8 3 21 -13z m-927 -130 c9 -18 14 -33 12 -33 -6 0 -36 55
-36 66 0 11 5 3 24 -33z m-1668 -18 c-23 -17 -121 -55 -139 -54 -7 0 11 9 38
19 28 10 64 25 80 34 37 20 46 20 21 1z m2571 -81 c2 -5 -3 -19 -12 -29 -14
-19 -14 -18 -15 13 0 31 18 42 27 16z m-977 -305 c-10 -33 -80 -164 -105 -194
-21 -26 -18 -19 38 99 26 55 50 111 54 124 4 16 8 20 13 12 4 -7 4 -26 0 -41z
m381 -16 c-12 -20 -14 -14 -5 12 4 9 9 14 11 11 3 -2 0 -13 -6 -23z m-34 -70
c-36 -54 -136 -229 -164 -288 -13 -27 -21 -39 -17 -25 13 52 192 365 203 355
2 -3 -8 -22 -22 -42z m943 -228 c41 -44 106 -112 145 -150 89 -90 140 -184
133 -247 -6 -49 -38 -129 -45 -111 -2 6 3 25 11 42 9 16 16 43 16 58 0 38 -45
123 -97 184 -24 29 -53 68 -63 88 -10 20 -53 70 -96 111 -79 78 -134 145 -134
164 1 6 13 -5 28 -24 15 -19 61 -71 102 -115z m-1417 80 c-3 -9 -8 -14 -10
-11 -3 3 -2 9 2 15 9 16 15 13 8 -4z m1750 -160 c4 -8 2 -17 -3 -20 -6 -4 -10
3 -10 14 0 25 6 27 13 6z m-1978 -111 c-8 -32 -15 -73 -15 -91 0 -18 -5 -33
-10 -33 -6 0 -8 16 -4 43 8 54 35 150 40 144 3 -2 -2 -30 -11 -63z m2010 46
c3 -5 2 -10 -4 -10 -5 0 -13 5 -16 10 -3 6 -2 10 4 10 5 0 13 -4 16 -10z m43
-22 c14 -14 16 -28 2 -28 -5 0 -14 9 -20 20 -12 22 -1 27 18 8z m-281 -189
c15 -29 17 -129 3 -129 -9 0 -13 12 -24 76 -3 18 -8 44 -12 59 -9 35 15 31 33
-6z m-957 -5 c0 -14 -4 -23 -9 -20 -5 3 -7 15 -4 26 7 28 13 25 13 -6z m78
-93 c-2 -8 -9 -16 -15 -19 -9 -2 -13 8 -13 35 1 36 1 37 16 18 8 -11 13 -26
12 -34z m91 -85 c1 -15 -2 -16 -14 -6 -9 8 -15 28 -14 54 l1 41 13 -35 c7 -19
14 -43 14 -54z m353 -118 c-7 -7 -12 -8 -12 -2 0 14 12 26 19 19 2 -3 -1 -11
-7 -17z m3890 -745 c-11 -16 -47 -80 -80 -143 -106 -204 -160 -300 -168 -300
-6 0 8 31 68 147 32 62 58 118 58 124 0 23 73 155 103 187 36 37 49 27 19 -15z
m-182 -113 c0 -5 -6 -10 -14 -10 -8 0 -18 5 -21 10 -3 6 3 10 14 10 12 0 21
-4 21 -10z m-28 -157 c-33 -54 -70 -118 -82 -143 -13 -24 -30 -56 -40 -70 -56
-82 -160 -250 -160 -258 0 -5 -7 -15 -15 -22 -9 -7 -14 -19 -11 -26 3 -7 -5
-23 -18 -37 -12 -13 -22 -34 -21 -46 1 -12 -4 -21 -13 -21 -9 0 -12 -6 -8 -17
4 -10 4 -14 0 -10 -4 4 -18 -14 -31 -40 -32 -64 -207 -349 -274 -445 -11 -15
-19 -30 -19 -33 0 -8 -141 -214 -151 -221 -5 -3 5 19 23 48 17 29 43 73 57 96
14 24 34 58 45 75 10 18 46 82 79 142 51 94 88 158 144 250 6 11 47 80 90 153
43 73 89 150 102 170 13 20 57 102 99 182 41 80 79 148 84 151 5 3 16 20 26
38 22 41 144 193 150 187 2 -3 -23 -49 -56 -103z m-225 -50 c-4 -3 -2 -12 4
-19 6 -7 6 -14 1 -18 -6 -3 -13 1 -16 10 -6 16 0 34 11 34 4 0 3 -3 0 -7z
m-72 -63 c3 -5 1 -10 -4 -10 -6 0 -11 5 -11 10 0 6 2 10 4 10 3 0 8 -4 11 -10z
m-3590 -1299 c-6 -5 -21 -12 -35 -15 l-25 -7 25 15 c28 17 50 21 35 7z m-75
-30 c-8 -5 -26 -12 -40 -15 l-25 -7 25 15 c14 9 32 15 40 15 13 0 13 -1 0 -8z
m787 -7 c-3 -3 -12 -4 -19 -1 -8 3 -5 6 6 6 11 1 17 -2 13 -5z"/>
<path d="M11468 19663 c7 -3 16 -2 19 1 4 3 -2 6 -13 5 -11 0 -14 -3 -6 -6z"/>
<path d="M11500 19630 c20 -13 33 -13 25 0 -3 6 -14 10 -23 10 -15 0 -15 -2
-2 -10z"/>
<path d="M12168 19503 c7 -3 16 -2 19 1 4 3 -2 6 -13 5 -11 0 -14 -3 -6 -6z"/>
<path d="M11220 19350 c0 -5 5 -10 11 -10 5 0 7 5 4 10 -3 6 -8 10 -11 10 -2
0 -4 -4 -4 -10z"/>
<path d="M11160 19090 c0 -5 5 -10 11 -10 5 0 7 5 4 10 -3 6 -8 10 -11 10 -2
0 -4 -4 -4 -10z"/>
<path d="M11200 19070 c8 -6 24 -15 35 -21 16 -8 15 -6 -4 10 -13 12 -28 21
-35 21 -6 0 -4 -5 4 -10z"/>
<path d="M10540 19066 c0 -2 7 -6 15 -10 8 -3 15 -1 15 4 0 6 -7 10 -15 10 -8
0 -15 -2 -15 -4z"/>
<path d="M10880 19052 c0 -9 59 -46 65 -40 2 2 -12 13 -31 26 -19 12 -34 19
-34 14z"/>
<path d="M11260 19036 c0 -2 7 -7 16 -10 8 -3 12 -2 9 4 -6 10 -25 14 -25 6z"/>
<path d="M10980 18990 c0 -5 9 -10 19 -10 11 0 21 -6 24 -12 2 -7 8 -10 12 -5
9 8 -23 36 -42 37 -7 0 -13 -4 -13 -10z"/>
<path d="M10690 18946 c0 -2 7 -7 16 -10 8 -3 12 -2 9 4 -6 10 -25 14 -25 6z"/>
<path d="M11370 18486 c0 -3 9 -10 20 -16 11 -6 20 -8 20 -6 0 3 -9 10 -20 16
-11 6 -20 8 -20 6z"/>
<path d="M11544 18371 c11 -11 23 -21 28 -21 14 0 -1 19 -25 31 -22 12 -22 12
-3 -10z"/>
<path d="M10150 18325 c0 -8 4 -15 10 -15 5 0 7 7 4 15 -4 8 -8 15 -10 15 -2
0 -4 -7 -4 -15z"/>
<path d="M10095 18170 c-3 -5 -1 -10 4 -10 6 0 11 5 11 10 0 6 -2 10 -4 10 -3
0 -8 -4 -11 -10z"/>
<path d="M10950 18109 c0 -5 9 -9 20 -9 11 0 20 2 20 4 0 2 -9 6 -20 9 -11 3
-20 1 -20 -4z"/>
<path d="M9630 18036 c0 -2 7 -7 16 -10 8 -3 12 -2 9 4 -6 10 -25 14 -25 6z"/>
<path d="M10340 17986 c0 -2 7 -7 16 -10 8 -3 12 -2 9 4 -6 10 -25 14 -25 6z"/>
<path d="M10380 17966 c0 -2 7 -7 16 -10 8 -3 12 -2 9 4 -6 10 -25 14 -25 6z"/>
<path d="M9690 17760 c0 -5 5 -10 11 -10 5 0 7 5 4 10 -3 6 -8 10 -11 10 -2 0
-4 -4 -4 -10z"/>
<path d="M9950 17750 c8 -5 20 -10 25 -10 6 0 3 5 -5 10 -8 5 -19 10 -25 10
-5 0 -3 -5 5 -10z"/>
<path d="M9619 17663 c-13 -16 -12 -17 4 -4 16 13 21 21 13 21 -2 0 -10 -8
-17 -17z"/>
<path d="M10500 17660 c0 -5 7 -10 16 -10 8 0 12 5 9 10 -3 6 -10 10 -16 10
-5 0 -9 -4 -9 -10z"/>
<path d="M10410 17589 c0 -5 5 -7 10 -4 6 3 10 8 10 11 0 2 -4 4 -10 4 -5 0
-10 -5 -10 -11z"/>
<path d="M9774 17441 c3 -5 17 -8 31 -8 13 0 22 3 19 8 -3 5 -16 9 -30 9 -14
0 -23 -4 -20 -9z"/>
<path d="M9240 17786 c0 -2 8 -10 18 -17 15 -13 16 -12 3 4 -13 16 -21 21 -21
13z"/>
<path d="M9306 17702 c5 -4 23 -18 39 -32 l30 -25 -29 33 c-17 17 -34 32 -40
32 -6 0 -6 -3 0 -8z"/>
<path d="M8880 17686 c0 -2 8 -10 18 -17 15 -13 16 -12 3 4 -13 16 -21 21 -21
13z"/>
<path d="M9070 17496 c0 -2 8 -10 18 -17 15 -13 16 -12 3 4 -13 16 -21 21 -21
13z"/>
<path d="M9370 17246 c0 -2 8 -10 18 -17 15 -13 16 -12 3 4 -13 16 -21 21 -21
13z"/>
<path d="M9607 17229 c7 -7 15 -10 18 -7 3 3 -2 9 -12 12 -14 6 -15 5 -6 -5z"/>
<path d="M9634 17051 c4 -6 16 -16 28 -22 15 -8 18 -8 14 0 -4 6 -16 16 -28
22 -15 8 -18 8 -14 0z"/>
<path d="M9420 17676 c0 -2 7 -9 15 -16 9 -7 15 -8 15 -2 0 5 -7 12 -15 16 -8
3 -15 4 -15 2z"/>
<path d="M9485 17420 c3 -5 8 -10 11 -10 2 0 4 5 4 10 0 6 -5 10 -11 10 -5 0
-7 -4 -4 -10z"/>
<path d="M9852 17304 c10 -10 20 -16 22 -13 3 3 -5 11 -17 18 -21 13 -21 12
-5 -5z"/>
<path d="M9897 17279 c7 -7 15 -10 18 -7 3 3 -2 9 -12 12 -14 6 -15 5 -6 -5z"/>
<path d="M9830 17170 c0 -5 5 -10 11 -10 5 0 7 5 4 10 -3 6 -8 10 -11 10 -2 0
-4 -4 -4 -10z"/>
<path d="M8890 16921 c0 -5 7 -12 16 -15 24 -9 27 -7 10 9 -17 17 -26 19 -26
6z"/>
<path d="M10911 14547 c-1 -10 -8 -20 -16 -23 -8 -4 -15 -11 -15 -16 0 -9 -17
-32 -61 -86 -6 -7 -9 -15 -7 -18 9 -8 110 136 105 149 -3 7 -6 4 -6 -6z"/>
<path d="M10735 14320 c-3 -6 1 -7 9 -4 18 7 21 14 7 14 -6 0 -13 -4 -16 -10z"/>
<path d="M10627 14183 c-4 -3 -7 -11 -7 -17 0 -6 5 -5 12 2 6 6 9 14 7 17 -3
3 -9 2 -12 -2z"/>
<path d="M10601 14144 c0 -11 3 -14 6 -6 3 7 2 16 -1 19 -3 4 -6 -2 -5 -13z"/>
<path d="M10365 13860 c-3 -6 1 -7 9 -4 18 7 21 14 7 14 -6 0 -13 -4 -16 -10z"/>
<path d="M10327 13807 c-20 -18 -37 -37 -37 -42 0 -6 -14 -26 -30 -45 -17 -19
-47 -60 -67 -90 -19 -30 -47 -71 -60 -92 -14 -20 -25 -42 -27 -50 -1 -7 -6
-20 -11 -28 -8 -13 -7 -13 9 0 15 11 184 255 221 318 6 9 12 19 15 22 13 13
32 40 28 40 -2 0 -21 -15 -41 -33z"/>
<path d="M10745 13420 c-3 -5 -2 -10 4 -10 5 0 17 -3 25 -6 12 -5 15 -2 10 10
-7 18 -29 21 -39 6z"/>
<path d="M15645 12274 c-195 -27 -305 -80 -441 -210 -54 -53 -99 -109 -130
-164 -27 -48 -57 -130 -50 -137 3 -3 60 22 128 55 101 50 143 65 233 82 61 12
160 32 220 45 61 13 135 27 166 30 63 8 81 -3 107 -65 21 -50 32 -276 20 -428
-5 -70 -11 -174 -14 -232 -4 -102 -22 -194 -66 -330 -42 -132 -102 -223 -222
-339 -36 -34 -66 -65 -66 -67 0 -14 53 28 117 94 71 72 133 153 165 217 16 32
64 175 97 290 10 39 38 133 60 210 95 332 116 555 66 713 -34 109 -94 178
-190 221 -31 13 -148 22 -200 15z"/>
<path d="M14996 11708 c-29 -71 -32 -174 -7 -249 31 -92 76 -161 103 -157 12
2 23 9 26 17 3 9 0 11 -8 6 -9 -6 -11 -4 -4 6 4 8 7 25 5 38 -2 20 1 23 18 18
23 -6 27 3 9 21 -33 33 58 -11 135 -66 148 -103 249 -205 278 -278 6 -16 13
-77 14 -136 4 -101 2 -109 -17 -119 -16 -9 -23 -8 -29 3 -39 70 -179 199 -415
385 -124 97 -180 156 -217 228 -15 29 -15 29 -12 -40 1 -38 8 -99 14 -135 13
-74 19 -229 9 -233 -3 -1 -9 -20 -12 -42 -6 -39 -6 -39 4 -7 6 18 15 30 21 27
5 -4 7 -10 4 -15 -3 -4 2 -13 10 -20 8 -7 15 -18 15 -24 0 -6 -4 -5 -9 3 -5 8
-6 -13 -3 -50 3 -35 6 -97 5 -136 0 -40 4 -73 9 -73 5 0 7 4 4 9 -3 5 1 14 8
20 12 10 13 8 9 -11 -9 -34 -21 -47 -43 -41 -11 3 -20 0 -20 -6 0 -6 5 -11 10
-11 6 0 10 -7 10 -16 0 -11 -5 -14 -16 -10 -9 3 -21 6 -28 6 -7 0 -23 9 -36
20 -13 11 -29 20 -36 20 -8 0 -11 6 -8 15 19 47 -89 -16 -117 -70 -21 -40 -21
-42 -4 -78 37 -79 157 -97 269 -40 47 24 178 118 201 144 11 13 -1 6 -26 -14
-25 -20 -50 -37 -55 -37 -5 0 -20 -9 -34 -20 -30 -24 -48 -26 -25 -4 13 14 14
19 3 25 -9 6 -3 9 17 9 17 0 25 3 18 8 -8 5 1 16 25 32 20 13 45 33 54 44 15
18 27 21 90 19 84 -2 124 6 226 48 90 37 164 89 189 132 42 71 59 243 34 344
-31 127 -188 296 -363 392 -96 53 -191 98 -233 111 -22 7 -43 17 -46 22 -3 5
-14 -11 -23 -34z m-36 -849 c0 -11 -4 -17 -10 -14 -5 3 -10 13 -10 21 0 8 5
14 10 14 6 0 10 -9 10 -21z"/>
<path d="M14855 10810 c3 -5 8 -10 11 -10 2 0 4 5 4 10 0 6 -5 10 -11 10 -5 0
-7 -4 -4 -10z"/>
<path d="M14905 10741 c-3 -5 -1 -12 5 -16 5 -3 10 1 10 9 0 18 -6 21 -15 7z"/>
<path d="M15575 10624 c-38 -36 -55 -56 -37 -44 17 12 48 36 67 54 19 18 37
31 40 28 3 -3 5 2 5 11 0 10 -1 17 -2 17 -2 0 -34 -30 -73 -66z"/>
<path d="M9221 8156 c2 -2 31 -6 64 -9 39 -4 51 -3 35 2 -25 9 -107 15 -99 7z"/>
<path d="M9158 8143 c7 -3 16 -2 19 1 4 3 -2 6 -13 5 -11 0 -14 -3 -6 -6z"/>
<path d="M9218 8133 c12 -2 32 -2 45 0 12 2 2 4 -23 4 -25 0 -35 -2 -22 -4z"/>
<path d="M9393 8114 c80 -41 153 -101 206 -168 40 -50 40 -23 1 31 -34 47
-143 128 -184 139 -14 3 -29 10 -32 15 -3 5 -13 9 -22 9 -9 -1 5 -12 31 -26z"/>
<path d="M9335 8093 c10 -16 28 -39 40 -53 37 -41 149 -210 195 -293 23 -43
50 -109 60 -148 10 -39 21 -73 24 -77 14 -13 14 7 1 68 -7 36 -12 67 -10 69 3
2 13 -7 24 -20 15 -18 20 -20 21 -8 0 9 -10 24 -21 35 -12 10 -39 55 -59 99
-20 44 -58 107 -83 140 -25 33 -44 62 -41 64 6 7 73 -72 102 -119 14 -25 36
-59 47 -75 27 -41 120 -136 107 -109 -6 11 -18 27 -27 34 -8 7 -40 56 -70 110
-31 53 -72 116 -92 139 -51 60 -191 171 -215 171 -20 0 -20 -1 -3 -27z"/>
<path d="M9670 7831 c0 -6 4 -13 10 -16 6 -3 7 1 4 9 -7 18 -14 21 -14 7z"/>
<path d="M9686 7248 c-4 -24 -10 -54 -13 -67 -4 -16 -2 -22 5 -17 11 7 28 113
20 122 -3 2 -8 -15 -12 -38z"/>
<path d="M9552 7162 c0 -26 3 -54 8 -62 7 -10 10 1 10 35 0 66 -16 91 -18 27z"/>
<path d="M10113 6937 c14 -78 19 -86 27 -42 8 41 2 63 -23 83 -11 10 -12 3 -4
-41z"/>
<path d="M9801 6888 c0 -7 4 -22 9 -33 8 -18 9 -17 9 7 1 15 -3 30 -9 33 -5 3
-10 0 -9 -7z"/>
<path d="M8450 8206 c0 -9 40 -13 46 -5 3 5 -6 9 -20 9 -14 0 -26 -2 -26 -4z"/>
<path d="M7877 20566 c-15 -22 -15 -24 3 -19 12 3 16 10 13 21 -5 11 -3 13 7
7 9 -5 11 -4 6 3 -10 16 -11 15 -29 -12z"/>
<path d="M5432 17535 c0 -16 2 -22 5 -12 2 9 2 23 0 30 -3 6 -5 -1 -5 -18z"/>
<path d="M13350 10890 c-12 -17 -19 -37 -16 -45 6 -17 46 -21 46 -4 0 6 -9 8
-22 4 -13 -3 -18 -3 -12 2 14 11 44 55 44 65 0 17 -20 6 -40 -22z"/>
<path d="M10730 8891 c0 -5 7 -12 16 -15 14 -5 15 -4 4 9 -14 17 -20 19 -20 6z"/>
<path d="M10780 8842 c6 -13 14 -21 18 -18 3 4 -2 14 -12 24 -18 16 -18 16 -6
-6z"/>
<path d="M11100 8644 c0 -17 138 -153 174 -170 24 -12 20 -6 -19 28 -27 23
-74 68 -102 98 -29 30 -53 50 -53 44z"/>
<path d="M11330 8582 c0 -10 37 -45 60 -57 8 -4 -1 8 -19 28 -37 39 -41 42
-41 29z"/>
<path d="M7661 7144 c0 -11 3 -14 6 -6 3 7 2 16 -1 19 -3 4 -6 -2 -5 -13z"/>
</g>
</svg>
